<svg width="170" height="81" viewBox="0 0 170 81" fill="none" xmlns="http://www.w3.org/2000/svg">
<mask id="path-1-outside-1_41_704" maskUnits="userSpaceOnUse" x="0" y="74.1123" width="170" height="7" fill="black">
<rect fill="white" y="74.1123" width="170" height="7"/>
<path d="M1 75.2084H1.47884V77.2007H3.90516V75.2084H4.38078V79.9585H3.90516V77.6684H1.47884V79.9585H1V75.2084Z"/>
<path d="M14.0376 75.1315H14.5132V77.9983C14.5132 78.3378 14.5207 78.5503 14.5357 78.6357C14.5593 78.8236 14.6139 78.9805 14.6996 79.1065C14.7853 79.2304 14.9171 79.335 15.0949 79.4204C15.2749 79.5037 15.4559 79.5454 15.638 79.5454C15.7944 79.5859 16.0097 79.5721 16.284 79.5037C16.5582 79.4354 16.7435 79.3339 16.8399 79.1994C16.9363 79.0628 17.007 78.909 17.052 78.7382C17.0863 78.6186 17.1035 78.372 17.1035 77.9983V75.1315H17.5791V77.9983C17.5791 78.4232 17.5373 78.767 17.4538 79.0297C17.3702 79.2902 17.2031 79.5176 16.9524 79.7119C16.7039 79.9041 16.2743 80.0002 15.6637 80.0002C15.2781 80.0002 14.9482 79.9084 14.6739 79.7247C14.4018 79.5411 14.2197 79.2998 14.1276 79.0008C14.0676 78.8129 14.0376 78.4787 14.0376 77.9983V75.1315Z"/>
<path d="M26.9563 79.9585L27.6344 75.2084H27.7115L29.6494 79.1033L31.5647 75.2084H31.6419L32.3296 79.9585H31.8572L31.3912 76.5601L29.7072 79.9585H29.5851L27.8786 76.5377L27.4159 79.9585H26.9563Z"/>
<path d="M43.7057 75.1956L45.9264 79.9457H45.4186L44.6698 78.3794H42.6131L41.8707 79.9457H41.3373L43.59 75.1956H43.7057ZM43.6479 76.2013L42.8252 77.9246H44.4577L43.6479 76.2013Z"/>
<path d="M55.159 79.9585V75.2084H55.2618L58.4305 78.8439V75.2084H58.8997V79.9585H58.7905L55.6539 76.3679V79.9585H55.159Z"/>
<path d="M72.3885 75.1251C73.1084 75.1251 73.7104 75.3653 74.1946 75.8458C74.681 76.3263 74.9241 76.9178 74.9241 77.6203C74.9241 78.3143 74.682 78.8845 74.1978 79.3308C73.7136 79.777 73.1234 80.0002 72.4271 80.0002C71.7201 80.0002 71.1234 79.76 70.6371 79.2795C70.1508 78.7969 69.9076 78.2513 69.9076 77.6427C69.9076 77.1879 70.0179 76.7651 70.2386 76.3743C70.4593 75.9835 70.7613 75.6782 71.1448 75.4582C71.5283 75.2362 71.9429 75.1251 72.3885 75.1251ZM72.4078 75.5928C72.0565 75.5928 71.7222 75.6846 71.4052 75.8682C71.0902 76.0497 70.8449 76.2964 70.6692 76.6081C70.4935 76.9178 70.4057 77.2626 70.4057 77.6427C70.4057 78.2065 70.6007 78.6634 70.9906 79.0136C71.3827 79.3638 71.8551 79.5389 72.4078 79.5389C72.7763 79.5389 73.118 79.4493 73.433 79.2699C73.7479 79.0905 73.9932 78.8471 74.1689 78.5396C74.3446 78.23 74.4324 77.9235 74.4324 77.6203C74.4324 77.2445 74.3446 76.9039 74.1689 76.5985C73.9932 76.2932 73.7458 76.0497 73.4266 75.8682C73.1073 75.6846 72.7678 75.5928 72.4078 75.5928Z"/>
<path d="M84.3656 79.9585V75.2084H84.4685L87.6372 78.8439V75.2084H88.1064V79.9585H87.9971L84.8606 76.3679V79.9585H84.3656Z"/>
<path d="M102.192 76.1181L101.812 76.3999C101.607 76.1309 101.358 75.928 101.067 75.7914C100.778 75.6526 100.459 75.5832 100.112 75.5832C99.731 75.5832 99.3786 75.6739 99.0551 75.8554C98.7316 76.0369 98.4798 76.2814 98.2999 76.5889C98.1221 76.8943 98.0331 77.2391 98.0331 77.6235C98.0331 78.2022 98.2324 78.6688 98.6309 79.0233C99.0294 79.3756 99.5318 79.5518 100.138 79.5518C100.807 79.5518 101.365 79.2912 101.812 78.7702L102.192 79.0553C101.954 79.3564 101.657 79.5891 101.301 79.7536C100.946 79.918 100.549 80.0002 100.112 80.0002C99.2768 80.0002 98.618 79.7237 98.136 79.1706C97.7332 78.7029 97.5318 78.1734 97.5318 77.5819C97.5318 76.8879 97.776 76.3028 98.2645 75.8266C98.7551 75.3504 99.3679 75.1123 100.103 75.1123C100.548 75.1123 100.95 75.2009 101.308 75.3782C101.668 75.5533 101.962 75.7999 102.192 76.1181Z"/>
<path d="M113.908 75.1251C114.628 75.1251 115.23 75.3653 115.715 75.8458C116.201 76.3263 116.444 76.9178 116.444 77.6203C116.444 78.3143 116.202 78.8845 115.718 79.3308C115.234 79.777 114.643 80.0002 113.947 80.0002C113.24 80.0002 112.643 79.76 112.157 79.2795C111.671 78.7969 111.427 78.2513 111.427 77.6427C111.427 77.1879 111.538 76.7651 111.758 76.3743C111.979 75.9835 112.281 75.6782 112.665 75.4582C113.048 75.2362 113.463 75.1251 113.908 75.1251ZM113.928 75.5928C113.576 75.5928 113.242 75.6846 112.925 75.8682C112.61 76.0497 112.365 76.2964 112.189 76.6081C112.013 76.9178 111.926 77.2626 111.926 77.6427C111.926 78.2065 112.121 78.6634 112.51 79.0136C112.903 79.3638 113.375 79.5389 113.928 79.5389C114.296 79.5389 114.638 79.4493 114.953 79.2699C115.268 79.0905 115.513 78.8471 115.689 78.5396C115.864 78.23 115.952 77.9235 115.952 77.6203C115.952 77.2445 115.864 76.9039 115.689 76.5985C115.513 76.2932 115.266 76.0497 114.946 75.8682C114.627 75.6846 114.288 75.5928 113.928 75.5928Z"/>
<path d="M125.882 75.1956H126.361V79.4877H128.193V79.9457H125.882V75.1956Z"/>
<path d="M139.707 75.1251C140.427 75.1251 141.029 75.3653 141.513 75.8458C142 76.3263 142.243 76.9178 142.243 77.6203C142.243 78.3143 142.001 78.8845 141.517 79.3308C141.032 79.777 140.442 80.0002 139.746 80.0002C139.039 80.0002 138.442 79.76 137.956 79.2795C137.469 78.7969 137.226 78.2513 137.226 77.6427C137.226 77.1879 137.337 76.7651 137.557 76.3743C137.778 75.9835 138.08 75.6782 138.464 75.4582C138.847 75.2362 139.262 75.1251 139.707 75.1251ZM139.727 75.5928C139.375 75.5928 139.041 75.6846 138.724 75.8682C138.409 76.0497 138.164 76.2964 137.988 76.6081C137.812 76.9178 137.724 77.2626 137.724 77.6427C137.724 78.2065 137.919 78.6634 138.309 79.0136C138.701 79.3638 139.174 79.5389 139.727 79.5389C140.095 79.5389 140.437 79.4493 140.752 79.2699C141.067 79.0905 141.312 78.8471 141.488 78.5396C141.663 78.23 141.751 77.9235 141.751 77.6203C141.751 77.2445 141.663 76.9039 141.488 76.5985C141.312 76.2932 141.065 76.0497 140.745 75.8682C140.426 75.6846 140.087 75.5928 139.727 75.5928Z"/>
<path d="M156.28 76.0316L155.91 76.3807C155.645 76.1202 155.353 75.9227 155.036 75.7882C154.721 75.6536 154.413 75.5864 154.111 75.5864C153.738 75.5864 153.382 75.6782 153.044 75.8618C152.707 76.0455 152.446 76.2932 152.26 76.6049C152.073 76.9167 151.98 77.2135 151.98 77.4954C151.98 77.8541 152.076 78.1947 152.269 78.5172C152.462 78.8375 152.728 79.0894 153.066 79.2731C153.407 79.4546 153.779 79.5454 154.181 79.5454C154.67 79.5454 155.083 79.4076 155.422 79.1322C155.763 78.8567 155.965 78.5001 156.029 78.0623H154.509V77.6043H156.56C156.555 78.3389 156.337 78.9218 155.904 79.3532C155.473 79.7845 154.894 80.0002 154.165 80.0002C153.287 80.0002 152.591 79.7012 152.076 79.1033C151.68 78.6421 151.482 78.1093 151.482 77.505C151.482 77.0544 151.594 76.653 151.819 76.3006C152.046 75.9483 152.358 75.6622 152.755 75.4422C153.151 75.2223 153.599 75.1123 154.098 75.1123C154.501 75.1123 154.88 75.186 155.235 75.3333C155.591 75.4785 155.939 75.7113 156.28 76.0316Z"/>
<path d="M165.577 75.2084H166.13L167.348 77.1623L168.543 75.2084H169.093L167.585 77.6876V79.9585H167.116V77.6876L165.577 75.2084Z"/>
</mask>
<path d="M1 75.2084H1.47884V77.2007H3.90516V75.2084H4.38078V79.9585H3.90516V77.6684H1.47884V79.9585H1V75.2084Z" fill="white"/>
<path d="M14.0376 75.1315H14.5132V77.9983C14.5132 78.3378 14.5207 78.5503 14.5357 78.6357C14.5593 78.8236 14.6139 78.9805 14.6996 79.1065C14.7853 79.2304 14.9171 79.335 15.0949 79.4204C15.2749 79.5037 15.4559 79.5454 15.638 79.5454C15.7944 79.5859 16.0097 79.5721 16.284 79.5037C16.5582 79.4354 16.7435 79.3339 16.8399 79.1994C16.9363 79.0628 17.007 78.909 17.052 78.7382C17.0863 78.6186 17.1035 78.372 17.1035 77.9983V75.1315H17.5791V77.9983C17.5791 78.4232 17.5373 78.767 17.4538 79.0297C17.3702 79.2902 17.2031 79.5176 16.9524 79.7119C16.7039 79.9041 16.2743 80.0002 15.6637 80.0002C15.2781 80.0002 14.9482 79.9084 14.6739 79.7247C14.4018 79.5411 14.2197 79.2998 14.1276 79.0008C14.0676 78.8129 14.0376 78.4787 14.0376 77.9983V75.1315Z" fill="white"/>
<path d="M26.9563 79.9585L27.6344 75.2084H27.7115L29.6494 79.1033L31.5647 75.2084H31.6419L32.3296 79.9585H31.8572L31.3912 76.5601L29.7072 79.9585H29.5851L27.8786 76.5377L27.4159 79.9585H26.9563Z" fill="white"/>
<path d="M43.7057 75.1956L45.9264 79.9457H45.4186L44.6698 78.3794H42.6131L41.8707 79.9457H41.3373L43.59 75.1956H43.7057ZM43.6479 76.2013L42.8252 77.9246H44.4577L43.6479 76.2013Z" fill="white"/>
<path d="M55.159 79.9585V75.2084H55.2618L58.4305 78.8439V75.2084H58.8997V79.9585H58.7905L55.6539 76.3679V79.9585H55.159Z" fill="white"/>
<path d="M72.3885 75.1251C73.1084 75.1251 73.7104 75.3653 74.1946 75.8458C74.681 76.3263 74.9241 76.9178 74.9241 77.6203C74.9241 78.3143 74.682 78.8845 74.1978 79.3308C73.7136 79.777 73.1234 80.0002 72.4271 80.0002C71.7201 80.0002 71.1234 79.76 70.6371 79.2795C70.1508 78.7969 69.9076 78.2513 69.9076 77.6427C69.9076 77.1879 70.0179 76.7651 70.2386 76.3743C70.4593 75.9835 70.7613 75.6782 71.1448 75.4582C71.5283 75.2362 71.9429 75.1251 72.3885 75.1251ZM72.4078 75.5928C72.0565 75.5928 71.7222 75.6846 71.4052 75.8682C71.0902 76.0497 70.8449 76.2964 70.6692 76.6081C70.4935 76.9178 70.4057 77.2626 70.4057 77.6427C70.4057 78.2065 70.6007 78.6634 70.9906 79.0136C71.3827 79.3638 71.8551 79.5389 72.4078 79.5389C72.7763 79.5389 73.118 79.4493 73.433 79.2699C73.7479 79.0905 73.9932 78.8471 74.1689 78.5396C74.3446 78.23 74.4324 77.9235 74.4324 77.6203C74.4324 77.2445 74.3446 76.9039 74.1689 76.5985C73.9932 76.2932 73.7458 76.0497 73.4266 75.8682C73.1073 75.6846 72.7678 75.5928 72.4078 75.5928Z" fill="white"/>
<path d="M84.3656 79.9585V75.2084H84.4685L87.6372 78.8439V75.2084H88.1064V79.9585H87.9971L84.8606 76.3679V79.9585H84.3656Z" fill="white"/>
<path d="M102.192 76.1181L101.812 76.3999C101.607 76.1309 101.358 75.928 101.067 75.7914C100.778 75.6526 100.459 75.5832 100.112 75.5832C99.731 75.5832 99.3786 75.6739 99.0551 75.8554C98.7316 76.0369 98.4798 76.2814 98.2999 76.5889C98.1221 76.8943 98.0331 77.2391 98.0331 77.6235C98.0331 78.2022 98.2324 78.6688 98.6309 79.0233C99.0294 79.3756 99.5318 79.5518 100.138 79.5518C100.807 79.5518 101.365 79.2912 101.812 78.7702L102.192 79.0553C101.954 79.3564 101.657 79.5891 101.301 79.7536C100.946 79.918 100.549 80.0002 100.112 80.0002C99.2768 80.0002 98.618 79.7237 98.136 79.1706C97.7332 78.7029 97.5318 78.1734 97.5318 77.5819C97.5318 76.8879 97.776 76.3028 98.2645 75.8266C98.7551 75.3504 99.3679 75.1123 100.103 75.1123C100.548 75.1123 100.95 75.2009 101.308 75.3782C101.668 75.5533 101.962 75.7999 102.192 76.1181Z" fill="white"/>
<path d="M113.908 75.1251C114.628 75.1251 115.23 75.3653 115.715 75.8458C116.201 76.3263 116.444 76.9178 116.444 77.6203C116.444 78.3143 116.202 78.8845 115.718 79.3308C115.234 79.777 114.643 80.0002 113.947 80.0002C113.24 80.0002 112.643 79.76 112.157 79.2795C111.671 78.7969 111.427 78.2513 111.427 77.6427C111.427 77.1879 111.538 76.7651 111.758 76.3743C111.979 75.9835 112.281 75.6782 112.665 75.4582C113.048 75.2362 113.463 75.1251 113.908 75.1251ZM113.928 75.5928C113.576 75.5928 113.242 75.6846 112.925 75.8682C112.61 76.0497 112.365 76.2964 112.189 76.6081C112.013 76.9178 111.926 77.2626 111.926 77.6427C111.926 78.2065 112.121 78.6634 112.51 79.0136C112.903 79.3638 113.375 79.5389 113.928 79.5389C114.296 79.5389 114.638 79.4493 114.953 79.2699C115.268 79.0905 115.513 78.8471 115.689 78.5396C115.864 78.23 115.952 77.9235 115.952 77.6203C115.952 77.2445 115.864 76.9039 115.689 76.5985C115.513 76.2932 115.266 76.0497 114.946 75.8682C114.627 75.6846 114.288 75.5928 113.928 75.5928Z" fill="white"/>
<path d="M125.882 75.1956H126.361V79.4877H128.193V79.9457H125.882V75.1956Z" fill="white"/>
<path d="M139.707 75.1251C140.427 75.1251 141.029 75.3653 141.513 75.8458C142 76.3263 142.243 76.9178 142.243 77.6203C142.243 78.3143 142.001 78.8845 141.517 79.3308C141.032 79.777 140.442 80.0002 139.746 80.0002C139.039 80.0002 138.442 79.76 137.956 79.2795C137.469 78.7969 137.226 78.2513 137.226 77.6427C137.226 77.1879 137.337 76.7651 137.557 76.3743C137.778 75.9835 138.08 75.6782 138.464 75.4582C138.847 75.2362 139.262 75.1251 139.707 75.1251ZM139.727 75.5928C139.375 75.5928 139.041 75.6846 138.724 75.8682C138.409 76.0497 138.164 76.2964 137.988 76.6081C137.812 76.9178 137.724 77.2626 137.724 77.6427C137.724 78.2065 137.919 78.6634 138.309 79.0136C138.701 79.3638 139.174 79.5389 139.727 79.5389C140.095 79.5389 140.437 79.4493 140.752 79.2699C141.067 79.0905 141.312 78.8471 141.488 78.5396C141.663 78.23 141.751 77.9235 141.751 77.6203C141.751 77.2445 141.663 76.9039 141.488 76.5985C141.312 76.2932 141.065 76.0497 140.745 75.8682C140.426 75.6846 140.087 75.5928 139.727 75.5928Z" fill="white"/>
<path d="M156.28 76.0316L155.91 76.3807C155.645 76.1202 155.353 75.9227 155.036 75.7882C154.721 75.6536 154.413 75.5864 154.111 75.5864C153.738 75.5864 153.382 75.6782 153.044 75.8618C152.707 76.0455 152.446 76.2932 152.26 76.6049C152.073 76.9167 151.98 77.2135 151.98 77.4954C151.98 77.8541 152.076 78.1947 152.269 78.5172C152.462 78.8375 152.728 79.0894 153.066 79.2731C153.407 79.4546 153.779 79.5454 154.181 79.5454C154.67 79.5454 155.083 79.4076 155.422 79.1322C155.763 78.8567 155.965 78.5001 156.029 78.0623H154.509V77.6043H156.56C156.555 78.3389 156.337 78.9218 155.904 79.3532C155.473 79.7845 154.894 80.0002 154.165 80.0002C153.287 80.0002 152.591 79.7012 152.076 79.1033C151.68 78.6421 151.482 78.1093 151.482 77.505C151.482 77.0544 151.594 76.653 151.819 76.3006C152.046 75.9483 152.358 75.6622 152.755 75.4422C153.151 75.2223 153.599 75.1123 154.098 75.1123C154.501 75.1123 154.88 75.186 155.235 75.3333C155.591 75.4785 155.939 75.7113 156.28 76.0316Z" fill="white"/>
<path d="M165.577 75.2084H166.13L167.348 77.1623L168.543 75.2084H169.093L167.585 77.6876V79.9585H167.116V77.6876L165.577 75.2084Z" fill="white"/>
<path d="M1 75.2084V74.7084H0.5V75.2084H1ZM1.47884 75.2084H1.97884V74.7084H1.47884V75.2084ZM1.47884 77.2007H0.978837V77.7007H1.47884V77.2007ZM3.90516 77.2007V77.7007H4.40516V77.2007H3.90516ZM3.90516 75.2084V74.7084H3.40516V75.2084H3.90516ZM4.38078 75.2084H4.88078V74.7084H4.38078V75.2084ZM4.38078 79.9585V80.4585H4.88078V79.9585H4.38078ZM3.90516 79.9585H3.40516V80.4585H3.90516V79.9585ZM3.90516 77.6684H4.40516V77.1684H3.90516V77.6684ZM1.47884 77.6684V77.1684H0.978837V77.6684H1.47884ZM1.47884 79.9585V80.4585H1.97884V79.9585H1.47884ZM1 79.9585H0.5V80.4585H1V79.9585ZM14.0376 75.1315V74.6315H13.5376V75.1315H14.0376ZM14.5132 75.1315H15.0132V74.6315H14.5132V75.1315ZM14.5357 78.6357L15.0318 78.5735L15.0303 78.5613L15.0282 78.5492L14.5357 78.6357ZM14.6996 79.1065L14.2862 79.3878L14.2885 79.391L14.6996 79.1065ZM15.0949 79.4204L14.8784 79.8712L14.8849 79.8742L15.0949 79.4204ZM15.638 79.5454L15.7636 79.0614L15.7018 79.0454H15.638V79.5454ZM16.8399 79.1994L17.2464 79.4907L17.2485 79.4876L16.8399 79.1994ZM17.052 78.7382L16.5713 78.6004L16.5685 78.6108L17.052 78.7382ZM17.1035 75.1315V74.6315H16.6035V75.1315H17.1035ZM17.5791 75.1315H18.0791V74.6315H17.5791V75.1315ZM17.4538 79.0297L17.9299 79.1824L17.9302 79.1812L17.4538 79.0297ZM16.9524 79.7119L17.2583 80.1074L17.2588 80.1071L16.9524 79.7119ZM14.6739 79.7247L14.3942 80.1392L14.3957 80.1402L14.6739 79.7247ZM14.1276 79.0008L14.6054 78.8536L14.6039 78.8488L14.1276 79.0008ZM26.9563 79.9585L26.4613 79.8879L26.3799 80.4585H26.9563V79.9585ZM27.6344 75.2084V74.7084H27.2007L27.1394 75.1377L27.6344 75.2084ZM27.7115 75.2084L28.1592 74.9857L28.0212 74.7084H27.7115V75.2084ZM29.6494 79.1033L29.2017 79.326L29.652 80.2311L30.0981 79.324L29.6494 79.1033ZM31.5647 75.2084V74.7084H31.2534L31.116 74.9878L31.5647 75.2084ZM31.6419 75.2084L32.1367 75.1368L32.0747 74.7084H31.6419V75.2084ZM32.3296 79.9585V80.4585H32.9072L32.8244 79.8869L32.3296 79.9585ZM31.8572 79.9585L31.3618 80.0265L31.4211 80.4585H31.8572V79.9585ZM31.3912 76.5601L31.8866 76.4922L31.6655 74.8803L30.9432 76.3381L31.3912 76.5601ZM29.7072 79.9585V80.4585H30.0175L30.1552 80.1805L29.7072 79.9585ZM29.5851 79.9585L29.1377 80.1817L29.2758 80.4585H29.5851V79.9585ZM27.8786 76.5377L28.3261 76.3145L27.6009 74.8608L27.3832 76.4706L27.8786 76.5377ZM27.4159 79.9585V80.4585H27.8528L27.9114 80.0256L27.4159 79.9585ZM43.7057 75.1956L44.1587 74.9838L44.0239 74.6956H43.7057V75.1956ZM45.9264 79.9457V80.4457H46.7121L46.3793 79.734L45.9264 79.9457ZM45.4186 79.9457L44.9675 80.1614L45.1035 80.4457H45.4186V79.9457ZM44.6698 78.3794L45.1209 78.1638L44.985 77.8794H44.6698V78.3794ZM42.6131 78.3794V77.8794H42.2967L42.1613 78.1653L42.6131 78.3794ZM41.8707 79.9457V80.4457H42.1871L42.3225 80.1599L41.8707 79.9457ZM41.3373 79.9457L40.8855 79.7315L40.5468 80.4457H41.3373V79.9457ZM43.59 75.1956V74.6956H43.2738L43.1383 74.9813L43.59 75.1956ZM43.6479 76.2013L44.1004 75.9887L43.6514 75.0333L43.1967 75.9859L43.6479 76.2013ZM42.8252 77.9246L42.374 77.7092L42.0324 78.4246H42.8252V77.9246ZM44.4577 77.9246V78.4246H45.2452L44.9103 77.7119L44.4577 77.9246ZM55.159 79.9585H54.659V80.4585H55.159V79.9585ZM55.159 75.2084V74.7084H54.659V75.2084H55.159ZM55.2618 75.2084L55.6388 74.8799L55.4893 74.7084H55.2618V75.2084ZM58.4305 78.8439L58.0536 79.1724L58.9305 80.1785V78.8439H58.4305ZM58.4305 75.2084V74.7084H57.9305V75.2084H58.4305ZM58.8997 75.2084H59.3997V74.7084H58.8997V75.2084ZM58.8997 79.9585V80.4585H59.3997V79.9585H58.8997ZM58.7905 79.9585L58.4139 80.2875L58.5633 80.4585H58.7905V79.9585ZM55.6539 76.3679L56.0305 76.039L55.1539 75.0355V76.3679H55.6539ZM55.6539 79.9585V80.4585H56.1539V79.9585H55.6539ZM74.1946 75.8458L73.8424 76.2007L73.8432 76.2015L74.1946 75.8458ZM70.6371 79.2795L70.2849 79.6344L70.2857 79.6352L70.6371 79.2795ZM71.1448 75.4582L71.3936 75.892L71.3954 75.8909L71.1448 75.4582ZM71.4052 75.8682L71.6548 76.3014L71.6557 76.3009L71.4052 75.8682ZM70.6692 76.6081L71.1041 76.8549L71.1048 76.8536L70.6692 76.6081ZM70.9906 79.0136L70.6565 79.3856L70.6575 79.3865L70.9906 79.0136ZM74.1689 78.5396L74.6031 78.7876L74.6038 78.7863L74.1689 78.5396ZM73.4266 75.8682L73.1772 76.3016L73.1794 76.3029L73.4266 75.8682ZM84.3656 79.9585H83.8656V80.4585H84.3656V79.9585ZM84.3656 75.2084V74.7084H83.8656V75.2084H84.3656ZM84.4685 75.2084L84.8454 74.8799L84.6959 74.7084H84.4685V75.2084ZM87.6372 78.8439L87.2602 79.1724L88.1372 80.1785V78.8439H87.6372ZM87.6372 75.2084V74.7084H87.1372V75.2084H87.6372ZM88.1064 75.2084H88.6064V74.7084H88.1064V75.2084ZM88.1064 79.9585V80.4585H88.6064V79.9585H88.1064ZM87.9971 79.9585L87.6205 80.2875L87.77 80.4585H87.9971V79.9585ZM84.8606 76.3679L85.2371 76.039L84.3606 75.0355V76.3679H84.8606ZM84.8606 79.9585V80.4585H85.3606V79.9585H84.8606ZM102.192 76.1181L102.49 76.5194L102.885 76.2255L102.597 75.8258L102.192 76.1181ZM101.812 76.3999L101.415 76.7036L101.715 77.0955L102.111 76.8012L101.812 76.3999ZM101.067 75.7914L100.851 76.2422L100.855 76.244L101.067 75.7914ZM98.2999 76.5889L97.8683 76.3364L97.8678 76.3373L98.2999 76.5889ZM98.6309 79.0233L98.2986 79.3968L98.2997 79.3978L98.6309 79.0233ZM101.812 78.7702L102.113 78.3705L101.738 78.0891L101.433 78.4443L101.812 78.7702ZM102.192 79.0553L102.584 79.3652L102.901 78.9633L102.492 78.6556L102.192 79.0553ZM98.136 79.1706L97.7571 79.4969L97.759 79.4991L98.136 79.1706ZM98.2645 75.8266L97.9163 75.4678L97.9155 75.4686L98.2645 75.8266ZM101.308 75.3782L101.086 75.8262L101.089 75.8278L101.308 75.3782ZM115.715 75.8458L115.362 76.2007L115.363 76.2015L115.715 75.8458ZM112.157 79.2795L111.805 79.6344L111.806 79.6352L112.157 79.2795ZM112.665 75.4582L112.913 75.892L112.915 75.8909L112.665 75.4582ZM112.925 75.8682L113.175 76.3014L113.176 76.3009L112.925 75.8682ZM112.189 76.6081L112.624 76.8549L112.625 76.8536L112.189 76.6081ZM112.51 79.0136L112.176 79.3856L112.177 79.3865L112.51 79.0136ZM115.689 78.5396L116.123 78.7876L116.124 78.7863L115.689 78.5396ZM114.946 75.8682L114.697 76.3016L114.699 76.3029L114.946 75.8682ZM125.882 75.1956V74.6956H125.382V75.1956H125.882ZM126.361 75.1956H126.861V74.6956H126.361V75.1956ZM126.361 79.4877H125.861V79.9877H126.361V79.4877ZM128.193 79.4877H128.693V78.9877H128.193V79.4877ZM128.193 79.9457V80.4457H128.693V79.9457H128.193ZM125.882 79.9457H125.382V80.4457H125.882V79.9457ZM141.513 75.8458L141.161 76.2007L141.162 76.2015L141.513 75.8458ZM137.956 79.2795L137.604 79.6344L137.604 79.6352L137.956 79.2795ZM138.464 75.4582L138.712 75.892L138.714 75.8909L138.464 75.4582ZM138.724 75.8682L138.974 76.3014L138.974 76.3009L138.724 75.8682ZM137.988 76.6081L138.423 76.8549L138.424 76.8536L137.988 76.6081ZM138.309 79.0136L137.975 79.3856L137.976 79.3865L138.309 79.0136ZM141.488 78.5396L141.922 78.7876L141.923 78.7863L141.488 78.5396ZM140.745 75.8682L140.496 76.3016L140.498 76.3029L140.745 75.8682ZM156.28 76.0316L156.623 76.395L157.009 76.0307L156.622 75.6673L156.28 76.0316ZM155.91 76.3807L155.56 76.7377L155.904 77.0747L156.254 76.7442L155.91 76.3807ZM155.036 75.7882L154.84 76.248L154.841 76.2484L155.036 75.7882ZM153.044 75.8618L152.805 75.4223L152.804 75.423L153.044 75.8618ZM152.269 78.5172L151.84 78.7738L151.841 78.775L152.269 78.5172ZM153.066 79.2731L152.828 79.7126L152.831 79.7144L153.066 79.2731ZM155.422 79.1322L155.107 78.7434L155.106 78.7443L155.422 79.1322ZM156.029 78.0623L156.524 78.135L156.608 77.5623H156.029V78.0623ZM154.509 78.0623H154.009V78.5623H154.509V78.0623ZM154.509 77.6043V77.1043H154.009V77.6043H154.509ZM156.56 77.6043L157.06 77.6072L157.062 77.1043H156.56V77.6043ZM155.904 79.3532L155.551 78.999L155.55 78.9999L155.904 79.3532ZM152.076 79.1033L151.697 79.4292L151.697 79.4293L152.076 79.1033ZM151.819 76.3006L151.399 76.0298L151.398 76.0316L151.819 76.3006ZM155.235 75.3333L155.044 75.7952L155.046 75.7962L155.235 75.3333ZM165.577 75.2084V74.7084H164.678L165.152 75.4721L165.577 75.2084ZM166.13 75.2084L166.554 74.9439L166.407 74.7084H166.13V75.2084ZM167.348 77.1623L166.923 77.4268L167.352 78.1138L167.774 77.4232L167.348 77.1623ZM168.543 75.2084V74.7084H168.263L168.117 74.9474L168.543 75.2084ZM169.093 75.2084L169.52 75.4681L169.982 74.7084H169.093V75.2084ZM167.585 77.6876L167.158 77.4278L167.085 77.5475V77.6876H167.585ZM167.585 79.9585V80.4585H168.085V79.9585H167.585ZM167.116 79.9585H166.616V80.4585H167.116V79.9585ZM167.116 77.6876H167.616V77.545L167.541 77.4238L167.116 77.6876ZM1 75.7084H1.47884V74.7084H1V75.7084ZM0.978837 75.2084V77.2007H1.97884V75.2084H0.978837ZM1.47884 77.7007H3.90516V76.7007H1.47884V77.7007ZM4.40516 77.2007V75.2084H3.40516V77.2007H4.40516ZM3.90516 75.7084H4.38078V74.7084H3.90516V75.7084ZM3.88078 75.2084V79.9585H4.88078V75.2084H3.88078ZM4.38078 79.4585H3.90516V80.4585H4.38078V79.4585ZM4.40516 79.9585V77.6684H3.40516V79.9585H4.40516ZM3.90516 77.1684H1.47884V78.1684H3.90516V77.1684ZM0.978837 77.6684V79.9585H1.97884V77.6684H0.978837ZM1.47884 79.4585H1V80.4585H1.47884V79.4585ZM1.5 79.9585V75.2084H0.5V79.9585H1.5ZM14.0376 75.6315H14.5132V74.6315H14.0376V75.6315ZM14.0132 75.1315V77.9983H15.0132V75.1315H14.0132ZM14.0132 77.9983C14.0132 78.322 14.0191 78.5842 14.0433 78.7221L15.0282 78.5492C15.0286 78.5515 15.0268 78.5409 15.0245 78.5101C15.0223 78.4817 15.0203 78.4436 15.0186 78.3946C15.0151 78.2967 15.0132 78.1652 15.0132 77.9983H14.0132ZM14.0396 78.6979C14.0707 78.9456 14.1465 79.1823 14.2862 79.3877L15.1131 78.8253C15.0814 78.7787 15.0479 78.7016 15.0318 78.5735L14.0396 78.6979ZM14.2885 79.391C14.4365 79.605 14.6459 79.7595 14.8784 79.8711L15.3114 78.9697C15.1883 78.9106 15.1341 78.8558 15.1108 78.822L14.2885 79.391ZM14.8849 79.8742C15.1248 79.9852 15.3771 80.0454 15.638 80.0454V79.0454C15.5347 79.0454 15.425 79.0222 15.3049 78.9667L14.8849 79.8742ZM15.5125 80.0293C15.7894 80.1012 16.1021 80.0643 16.4049 79.9889L16.1631 79.0186C15.9174 79.0798 15.7995 79.0707 15.7636 79.0614L15.5125 80.0293ZM16.4049 79.9889C16.7198 79.9104 17.0464 79.7697 17.2464 79.4907L16.4335 78.9082C16.4394 78.9 16.433 78.9135 16.3886 78.9378C16.3437 78.9624 16.2717 78.9915 16.1631 79.0186L16.4049 79.9889ZM17.2485 79.4876C17.3812 79.2996 17.4762 79.0908 17.5356 78.8655L16.5685 78.6108C16.5379 78.7273 16.4915 78.8259 16.4314 78.9112L17.2485 79.4876ZM17.5327 78.876C17.5896 78.6775 17.6035 78.3595 17.6035 77.9983H16.6035C16.6035 78.1787 16.5993 78.3213 16.5918 78.4289C16.5881 78.4825 16.5838 78.524 16.5794 78.5552C16.5748 78.5878 16.5713 78.6008 16.5714 78.6004L17.5327 78.876ZM17.6035 77.9983V75.1315H16.6035V77.9983H17.6035ZM17.1035 75.6315H17.5791V74.6315H17.1035V75.6315ZM17.0791 75.1315V77.9983H18.0791V75.1315H17.0791ZM17.0791 77.9983C17.0791 78.3965 17.0392 78.6834 16.9773 78.8781L17.9302 79.1812C18.0354 78.8506 18.0791 78.45 18.0791 77.9983H17.0791ZM16.9776 78.877C16.9296 79.0267 16.8301 79.1741 16.6461 79.3167L17.2588 80.1071C17.5761 79.8611 17.8108 79.5536 17.9299 79.1824L16.9776 78.877ZM16.6466 79.3164C16.5366 79.4014 16.2525 79.5002 15.6637 79.5002V80.5002C16.2961 80.5002 16.8712 80.4068 17.2583 80.1074L16.6466 79.3164ZM15.6637 79.5002C15.3601 79.5002 15.1309 79.429 14.9521 79.3093L14.3957 80.1402C14.7654 80.3877 15.1961 80.5002 15.6637 80.5002V79.5002ZM14.9536 79.3103C14.7711 79.1871 14.6622 79.0378 14.6054 78.8536L13.6498 79.1481C13.7773 79.5618 14.0326 79.8951 14.3942 80.1392L14.9536 79.3103ZM14.6039 78.8488C14.5702 78.743 14.5376 78.4801 14.5376 77.9983H13.5376C13.5376 78.4774 13.5651 78.8828 13.6513 79.1529L14.6039 78.8488ZM14.5376 77.9983V75.1315H13.5376V77.9983H14.5376ZM27.4513 80.0292L28.1294 75.2791L27.1394 75.1377L26.4613 79.8879L27.4513 80.0292ZM27.6344 75.7084H27.7115V74.7084H27.6344V75.7084ZM27.2639 75.4311L29.2017 79.326L30.097 78.8806L28.1592 74.9857L27.2639 75.4311ZM30.0981 79.324L32.0134 75.429L31.116 74.9878L29.2007 78.8827L30.0981 79.324ZM31.5647 75.7084H31.6419V74.7084H31.5647V75.7084ZM31.147 75.28L31.8347 80.0302L32.8244 79.8869L32.1367 75.1368L31.147 75.28ZM32.3296 79.4585H31.8572V80.4585H32.3296V79.4585ZM32.3525 79.8906L31.8866 76.4922L30.8958 76.628L31.3618 80.0265L32.3525 79.8906ZM30.9432 76.3381L29.2592 79.7366L30.1552 80.1805L31.8392 76.7821L30.9432 76.3381ZM29.7072 79.4585H29.5851V80.4585H29.7072V79.4585ZM30.0325 79.7354L28.3261 76.3145L27.4312 76.7609L29.1377 80.1817L30.0325 79.7354ZM27.3832 76.4706L26.9204 79.8915L27.9114 80.0256L28.3741 76.6047L27.3832 76.4706ZM27.4159 79.4585H26.9563V80.4585H27.4159V79.4585ZM43.2528 75.4073L45.4734 80.1575L46.3793 79.734L44.1587 74.9838L43.2528 75.4073ZM45.9264 79.4457H45.4186V80.4457H45.9264V79.4457ZM45.8697 79.7301L45.1209 78.1638L44.2187 78.5951L44.9675 80.1614L45.8697 79.7301ZM44.6698 77.8794H42.6131V78.8794H44.6698V77.8794ZM42.1613 78.1653L41.4189 79.7316L42.3225 80.1599L43.0649 78.5936L42.1613 78.1653ZM41.8707 79.4457H41.3373V80.4457H41.8707V79.4457ZM41.789 80.16L44.0418 75.4098L43.1383 74.9813L40.8855 79.7315L41.789 80.16ZM43.59 75.6956H43.7057V74.6956H43.59V75.6956ZM43.1967 75.9859L42.374 77.7092L43.2764 78.14L44.0991 76.4168L43.1967 75.9859ZM42.8252 78.4246H44.4577V77.4246H42.8252V78.4246ZM44.9103 77.7119L44.1004 75.9887L43.1954 76.414L44.0052 78.1373L44.9103 77.7119ZM55.659 79.9585V75.2084H54.659V79.9585H55.659ZM55.159 75.7084H55.2618V74.7084H55.159V75.7084ZM54.8849 75.5369L58.0536 79.1724L58.8074 78.5154L55.6388 74.8799L54.8849 75.5369ZM58.9305 78.8439V75.2084H57.9305V78.8439H58.9305ZM58.4305 75.7084H58.8997V74.7084H58.4305V75.7084ZM58.3997 75.2084V79.9585H59.3997V75.2084H58.3997ZM58.8997 79.4585H58.7905V80.4585H58.8997V79.4585ZM59.167 79.6296L56.0305 76.039L55.2774 76.6968L58.4139 80.2875L59.167 79.6296ZM55.1539 76.3679V79.9585H56.1539V76.3679H55.1539ZM55.6539 79.4585H55.159V80.4585H55.6539V79.4585ZM72.3885 75.6251C72.9846 75.6251 73.4575 75.8188 73.8424 76.2007L74.5468 75.4909C73.9634 74.9119 73.2322 74.6251 72.3885 74.6251V75.6251ZM73.8432 76.2015C74.2316 76.5851 74.4241 77.0473 74.4241 77.6203H75.4241C75.4241 76.7883 75.1304 76.0674 74.546 75.4901L73.8432 76.2015ZM74.4241 77.6203C74.4241 78.1831 74.2344 78.6171 73.859 78.9631L74.5367 79.6984C75.1297 79.1518 75.4241 78.4455 75.4241 77.6203H74.4241ZM73.859 78.9631C73.4728 79.3191 73.0057 79.5002 72.4271 79.5002V80.5002C73.2411 80.5002 73.9545 80.235 74.5367 79.6984L73.859 78.9631ZM72.4271 79.5002C71.8466 79.5002 71.3777 79.3083 70.9885 78.9238L70.2857 79.6352C70.8691 80.2116 71.5936 80.5002 72.4271 80.5002V79.5002ZM70.9893 78.9246C70.5845 78.523 70.4076 78.1008 70.4076 77.6427H69.4076C69.4076 78.4019 69.717 79.0708 70.2849 79.6344L70.9893 78.9246ZM70.4076 77.6427C70.4076 77.2728 70.4963 76.9349 70.674 76.6202L69.8032 76.1285C69.5396 76.5953 69.4076 77.103 69.4076 77.6427H70.4076ZM70.674 76.6202C70.8512 76.3064 71.0893 76.0665 71.3936 75.892L70.8961 75.0245C70.4334 75.2899 70.0674 75.6607 69.8032 76.1285L70.674 76.6202ZM71.3954 75.8909C71.7023 75.7132 72.0304 75.6251 72.3885 75.6251V74.6251C71.8554 74.6251 71.3544 74.7591 70.8943 75.0255L71.3954 75.8909ZM72.4078 75.0928C71.9646 75.0928 71.5444 75.2098 71.1546 75.4356L71.6557 76.3009C71.9001 76.1594 72.1483 76.0928 72.4078 76.0928V75.0928ZM71.1555 75.435C70.7642 75.6606 70.4541 75.9715 70.2336 76.3627L71.1048 76.8536C71.2358 76.6212 71.4163 76.4389 71.6548 76.3014L71.1555 75.435ZM70.2343 76.3614C70.0131 76.7513 69.9057 77.1822 69.9057 77.6427H70.9057C70.9057 77.3431 70.974 77.0842 71.1041 76.8549L70.2343 76.3614ZM69.9057 77.6427C69.9057 78.3363 70.1523 78.9328 70.6565 79.3856L71.3247 78.6416C71.049 78.3941 70.9057 78.0766 70.9057 77.6427H69.9057ZM70.6575 79.3865C71.1462 79.8231 71.7391 80.0389 72.4078 80.0389V79.0389C71.971 79.0389 71.6191 78.9046 71.3237 78.6407L70.6575 79.3865ZM72.4078 80.0389C72.8616 80.0389 73.2888 79.9274 73.6804 79.7044L73.1855 78.8354C72.9473 78.9711 72.6911 79.0389 72.4078 79.0389V80.0389ZM73.6804 79.7044C74.0713 79.4818 74.3819 79.1747 74.6031 78.7876L73.7348 78.2915C73.6046 78.5194 73.4246 78.6993 73.1855 78.8354L73.6804 79.7044ZM74.6038 78.7863C74.8147 78.4146 74.9324 78.024 74.9324 77.6203H73.9324C73.9324 77.8231 73.8745 78.0453 73.734 78.2928L74.6038 78.7863ZM74.9324 77.6203C74.9324 77.163 74.8246 76.7355 74.6023 76.3492L73.7355 76.8479C73.8646 77.0723 73.9324 77.3259 73.9324 77.6203H74.9324ZM74.6023 76.3492C74.3802 75.9632 74.067 75.6572 73.6737 75.4336L73.1794 76.3029C73.4246 76.4423 73.6062 76.6231 73.7355 76.8479L74.6023 76.3492ZM73.6759 75.4348C73.2826 75.2086 72.8574 75.0928 72.4078 75.0928V76.0928C72.6781 76.0928 72.932 76.1606 73.1772 76.3016L73.6759 75.4348ZM84.8656 79.9585V75.2084H83.8656V79.9585H84.8656ZM84.3656 75.7084H84.4685V74.7084H84.3656V75.7084ZM84.0916 75.5369L87.2602 79.1724L88.0141 78.5154L84.8454 74.8799L84.0916 75.5369ZM88.1372 78.8439V75.2084H87.1372V78.8439H88.1372ZM87.6372 75.7084H88.1064V74.7084H87.6372V75.7084ZM87.6064 75.2084V79.9585H88.6064V75.2084H87.6064ZM88.1064 79.4585H87.9971V80.4585H88.1064V79.4585ZM88.3737 79.6296L85.2371 76.039L84.484 76.6968L87.6205 80.2875L88.3737 79.6296ZM84.3606 76.3679V79.9585H85.3606V76.3679H84.3606ZM84.8606 79.4585H84.3656V80.4585H84.8606V79.4585ZM101.893 75.7168L101.514 75.9986L102.111 76.8012L102.49 76.5194L101.893 75.7168ZM102.21 76.0963C101.958 75.7669 101.647 75.5112 101.279 75.3387L100.855 76.244C101.069 76.3448 101.256 76.4949 101.415 76.7036L102.21 76.0963ZM101.283 75.3406C100.921 75.1668 100.528 75.0832 100.112 75.0832V76.0832C100.391 76.0832 100.634 76.1383 100.851 76.2421L101.283 75.3406ZM100.112 75.0832C99.6479 75.0832 99.2108 75.1947 98.8104 75.4194L99.2997 76.2915C99.5464 76.1531 99.8142 76.0832 100.112 76.0832V75.0832ZM98.8104 75.4194C98.4128 75.6425 98.0951 75.949 97.8683 76.3364L98.7314 76.8415C98.8646 76.6139 99.0504 76.4314 99.2997 76.2915L98.8104 75.4194ZM97.8678 76.3373C97.6416 76.7257 97.5331 77.1587 97.5331 77.6235H98.5331C98.5331 77.3195 98.6025 77.0629 98.732 76.8405L97.8678 76.3373ZM97.5331 77.6235C97.5331 78.3313 97.7836 78.9388 98.2986 79.3968L98.9632 78.6497C98.6812 78.3988 98.5331 78.0731 98.5331 77.6235H97.5331ZM98.2997 79.3978C98.8024 79.8423 99.428 80.0518 100.138 80.0518V79.0518C99.6356 79.0518 99.2564 78.9089 98.9621 78.6487L98.2997 79.3978ZM100.138 80.0518C100.957 80.0518 101.652 79.7241 102.192 79.0961L101.433 78.4443C101.077 78.8584 100.656 79.0518 100.138 79.0518V80.0518ZM101.512 79.1699L101.891 79.4549L102.492 78.6556L102.113 78.3705L101.512 79.1699ZM101.799 78.7454C101.611 78.9835 101.378 79.1675 101.092 79.2997L101.511 80.2074C101.937 80.0107 102.296 79.7293 102.584 79.3652L101.799 78.7454ZM101.092 79.2997C100.809 79.4304 100.485 79.5002 100.112 79.5002V80.5002C100.613 80.5002 101.083 80.4056 101.511 80.2074L101.092 79.2997ZM100.112 79.5002C99.399 79.5002 98.8862 79.2704 98.5129 78.8421L97.759 79.4991C98.3498 80.1769 99.1546 80.5002 100.112 80.5002V79.5002ZM98.5148 78.8443C98.1865 78.4631 98.0318 78.048 98.0318 77.5819H97.0318C97.0318 78.2987 97.2799 78.9428 97.7571 79.4969L98.5148 78.8443ZM98.0318 77.5819C98.0318 77.0201 98.2235 76.5649 98.6135 76.1846L97.9155 75.4686C97.3286 76.0407 97.0318 76.7557 97.0318 77.5819H98.0318ZM98.6128 76.1854C99.0027 75.8069 99.4872 75.6123 100.103 75.6123V74.6123C99.2486 74.6123 98.5076 74.8939 97.9163 75.4678L98.6128 76.1854ZM100.103 75.6123C100.48 75.6123 100.805 75.6869 101.086 75.8262L101.53 74.9301C101.095 74.7149 100.616 74.6123 100.103 74.6123V75.6123ZM101.089 75.8278C101.376 75.9675 101.606 76.1607 101.786 76.4104L102.597 75.8258C102.319 75.4391 101.959 75.139 101.527 74.9285L101.089 75.8278ZM113.908 75.6251C114.504 75.6251 114.977 75.8188 115.362 76.2007L116.067 75.4909C115.483 74.9119 114.752 74.6251 113.908 74.6251V75.6251ZM115.363 76.2015C115.751 76.5851 115.944 77.0473 115.944 77.6203H116.944C116.944 76.7883 116.65 76.0674 116.066 75.4901L115.363 76.2015ZM115.944 77.6203C115.944 78.1831 115.754 78.6171 115.379 78.9631L116.057 79.6984C116.65 79.1518 116.944 78.4455 116.944 77.6203H115.944ZM115.379 78.9631C114.993 79.3191 114.526 79.5002 113.947 79.5002V80.5002C114.761 80.5002 115.474 80.235 116.057 79.6984L115.379 78.9631ZM113.947 79.5002C113.367 79.5002 112.898 79.3083 112.508 78.9238L111.806 79.6352C112.389 80.2116 113.113 80.5002 113.947 80.5002V79.5002ZM112.509 78.9246C112.104 78.523 111.927 78.1008 111.927 77.6427H110.927C110.927 78.4019 111.237 79.0708 111.805 79.6344L112.509 78.9246ZM111.927 77.6427C111.927 77.2728 112.016 76.9349 112.194 76.6202L111.323 76.1285C111.059 76.5953 110.927 77.103 110.927 77.6427H111.927ZM112.194 76.6202C112.371 76.3064 112.609 76.0665 112.913 75.892L112.416 75.0245C111.953 75.2899 111.587 75.6607 111.323 76.1285L112.194 76.6202ZM112.915 75.8909C113.222 75.7132 113.55 75.6251 113.908 75.6251V74.6251C113.375 74.6251 112.874 74.7591 112.414 75.0255L112.915 75.8909ZM113.928 75.0928C113.485 75.0928 113.064 75.2098 112.674 75.4356L113.176 76.3009C113.42 76.1594 113.668 76.0928 113.928 76.0928V75.0928ZM112.675 75.435C112.284 75.6606 111.974 75.9715 111.754 76.3627L112.625 76.8536C112.756 76.6212 112.936 76.4389 113.175 76.3014L112.675 75.435ZM111.754 76.3614C111.533 76.7514 111.426 77.1822 111.426 77.6427H112.426C112.426 77.3431 112.494 77.0842 112.624 76.8549L111.754 76.3614ZM111.426 77.6427C111.426 78.3363 111.672 78.9328 112.176 79.3856L112.845 78.6416C112.569 78.3941 112.426 78.0766 112.426 77.6427H111.426ZM112.177 79.3865C112.666 79.8231 113.259 80.0389 113.928 80.0389V79.0389C113.491 79.0389 113.139 78.9046 112.844 78.6407L112.177 79.3865ZM113.928 80.0389C114.381 80.0389 114.809 79.9274 115.2 79.7044L114.705 78.8354C114.467 78.9711 114.211 79.0389 113.928 79.0389V80.0389ZM115.2 79.7044C115.591 79.4818 115.902 79.1747 116.123 78.7876L115.255 78.2915C115.124 78.5194 114.944 78.6993 114.705 78.8354L115.2 79.7044ZM116.124 78.7863C116.335 78.4146 116.452 78.024 116.452 77.6203H115.452C115.452 77.8231 115.394 78.0453 115.254 78.2928L116.124 78.7863ZM116.452 77.6203C116.452 77.163 116.344 76.7355 116.122 76.3492L115.255 76.8479C115.385 77.0723 115.452 77.3259 115.452 77.6203H116.452ZM116.122 76.3492C115.9 75.9632 115.587 75.6572 115.194 75.4336L114.699 76.3029C114.944 76.4423 115.126 76.6231 115.255 76.8479L116.122 76.3492ZM115.196 75.4348C114.803 75.2086 114.377 75.0928 113.928 75.0928V76.0928C114.198 76.0928 114.452 76.1606 114.697 76.3016L115.196 75.4348ZM125.882 75.6956H126.361V74.6956H125.882V75.6956ZM125.861 75.1956V79.4877H126.861V75.1956H125.861ZM126.361 79.9877H128.193V78.9877H126.361V79.9877ZM127.693 79.4877V79.9457H128.693V79.4877H127.693ZM128.193 79.4457H125.882V80.4457H128.193V79.4457ZM126.382 79.9457V75.1956H125.382V79.9457H126.382ZM139.707 75.6251C140.303 75.6251 140.776 75.8188 141.161 76.2007L141.866 75.4909C141.282 74.9119 140.551 74.6251 139.707 74.6251V75.6251ZM141.162 76.2015C141.55 76.5851 141.743 77.0473 141.743 77.6203H142.743C142.743 76.7883 142.449 76.0674 141.865 75.4901L141.162 76.2015ZM141.743 77.6203C141.743 78.1831 141.553 78.6171 141.178 78.9631L141.855 79.6984C142.448 79.1518 142.743 78.4455 142.743 77.6203H141.743ZM141.178 78.9631C140.792 79.3191 140.324 79.5002 139.746 79.5002V80.5002C140.56 80.5002 141.273 80.235 141.855 79.6984L141.178 78.9631ZM139.746 79.5002C139.165 79.5002 138.696 79.3083 138.307 78.9238L137.604 79.6352C138.188 80.2116 138.912 80.5002 139.746 80.5002V79.5002ZM138.308 78.9246C137.903 78.523 137.726 78.1008 137.726 77.6427H136.726C136.726 78.4019 137.036 79.0708 137.604 79.6344L138.308 78.9246ZM137.726 77.6427C137.726 77.2728 137.815 76.9349 137.993 76.6202L137.122 76.1285C136.858 76.5953 136.726 77.103 136.726 77.6427H137.726ZM137.993 76.6202C138.17 76.3064 138.408 76.0665 138.712 75.892L138.215 75.0245C137.752 75.2899 137.386 75.6607 137.122 76.1285L137.993 76.6202ZM138.714 75.8909C139.021 75.7132 139.349 75.6251 139.707 75.6251V74.6251C139.174 74.6251 138.673 74.7591 138.213 75.0255L138.714 75.8909ZM139.727 75.0928C139.283 75.0928 138.863 75.2098 138.473 75.4356L138.974 76.3009C139.219 76.1594 139.467 76.0928 139.727 76.0928V75.0928ZM138.474 75.435C138.083 75.6606 137.773 75.9715 137.552 76.3627L138.424 76.8536C138.555 76.6212 138.735 76.4389 138.974 76.3014L138.474 75.435ZM137.553 76.3614C137.332 76.7514 137.224 77.1822 137.224 77.6427H138.224C138.224 77.3431 138.293 77.0842 138.423 76.8549L137.553 76.3614ZM137.224 77.6427C137.224 78.3363 137.471 78.9328 137.975 79.3856L138.643 78.6416C138.368 78.3941 138.224 78.0766 138.224 77.6427H137.224ZM137.976 79.3865C138.465 79.8231 139.058 80.0389 139.727 80.0389V79.0389C139.29 79.0389 138.938 78.9046 138.642 78.6407L137.976 79.3865ZM139.727 80.0389C140.18 80.0389 140.608 79.9274 140.999 79.7044L140.504 78.8354C140.266 78.9711 140.01 79.0389 139.727 79.0389V80.0389ZM140.999 79.7044C141.39 79.4818 141.701 79.1747 141.922 78.7876L141.054 78.2915C140.923 78.5194 140.743 78.6993 140.504 78.8354L140.999 79.7044ZM141.923 78.7863C142.133 78.4146 142.251 78.024 142.251 77.6203H141.251C141.251 77.8231 141.193 78.0453 141.053 78.2928L141.923 78.7863ZM142.251 77.6203C142.251 77.163 142.143 76.7355 141.921 76.3492L141.054 76.8479C141.183 77.0723 141.251 77.3259 141.251 77.6203H142.251ZM141.921 76.3492C141.699 75.9632 141.386 75.6572 140.992 75.4336L140.498 76.3029C140.743 76.4423 140.925 76.6231 141.054 76.8479L141.921 76.3492ZM140.995 75.4348C140.601 75.2086 140.176 75.0928 139.727 75.0928V76.0928C139.997 76.0928 140.251 76.1606 140.496 76.3016L140.995 75.4348ZM155.937 75.6681L155.567 76.0173L156.254 76.7442L156.623 76.395L155.937 75.6681ZM156.26 76.0237C155.954 75.7229 155.611 75.4887 155.232 75.3279L154.841 76.2484C155.096 76.3566 155.336 76.5175 155.56 76.7377L156.26 76.0237ZM155.233 75.3283C154.864 75.1708 154.489 75.0864 154.111 75.0864V76.0864C154.337 76.0864 154.579 76.1364 154.84 76.248L155.233 75.3283ZM154.111 75.0864C153.652 75.0864 153.215 75.2003 152.805 75.4223L153.282 76.3013C153.55 76.156 153.824 76.0864 154.111 76.0864V75.0864ZM152.804 75.423C152.394 75.6469 152.065 75.9557 151.83 76.3484L152.689 76.8615C152.827 76.6306 153.021 76.444 153.283 76.3007L152.804 75.423ZM151.83 76.3484C151.611 76.7157 151.48 77.1006 151.48 77.4954H152.48C152.48 77.3264 152.536 77.1177 152.689 76.8615L151.83 76.3484ZM151.48 77.4954C151.48 77.9489 151.603 78.3776 151.84 78.7738L152.698 78.2605C152.55 78.0118 152.48 77.7594 152.48 77.4954H151.48ZM151.841 78.775C152.081 79.1741 152.413 79.4878 152.828 79.7126L153.305 78.8336C153.042 78.6911 152.843 78.5008 152.698 78.2593L151.841 78.775ZM152.831 79.7144C153.247 79.9361 153.7 80.0454 154.181 80.0454V79.0454C153.857 79.0454 153.566 78.9731 153.301 78.8318L152.831 79.7144ZM154.181 80.0454C154.77 80.0454 155.299 79.8767 155.737 79.52L155.106 78.7443C154.868 78.9386 154.569 79.0454 154.181 79.0454V80.0454ZM155.736 79.521C156.176 79.1656 156.442 78.6956 156.524 78.135L155.535 77.9897C155.488 78.3045 155.349 78.5478 155.107 78.7434L155.736 79.521ZM156.029 77.5623H154.509V78.5623H156.029V77.5623ZM155.009 78.0623V77.6043H154.009V78.0623H155.009ZM154.509 78.1043H156.56V77.1043H154.509V78.1043ZM156.06 77.6014C156.056 78.2326 155.872 78.6791 155.551 78.999L156.257 79.7073C156.801 79.1645 157.055 78.4452 157.06 77.6072L156.06 77.6014ZM155.55 78.9999C155.231 79.3193 154.789 79.5002 154.165 79.5002V80.5002C154.999 80.5002 155.715 80.2497 156.258 79.7064L155.55 78.9999ZM154.165 79.5002C153.414 79.5002 152.863 79.2514 152.456 78.7773L151.697 79.4293C152.318 80.1511 153.16 80.5002 154.165 80.5002V79.5002ZM152.456 78.7775C152.137 78.4063 151.982 77.9889 151.982 77.505H150.982C150.982 78.2297 151.223 78.8779 151.697 79.4292L152.456 78.7775ZM151.982 77.505C151.982 77.142 152.071 76.8354 152.241 76.5697L151.398 76.0316C151.118 76.4706 150.982 76.9668 150.982 77.505H151.982ZM152.24 76.5715C152.419 76.294 152.667 76.0627 152.997 75.8794L152.512 75.005C152.05 75.2616 151.674 75.6026 151.399 76.0298L152.24 76.5715ZM152.997 75.8794C153.312 75.7047 153.675 75.6123 154.098 75.6123V74.6123C153.523 74.6123 152.99 74.7398 152.512 75.005L152.997 75.8794ZM154.098 75.6123C154.438 75.6123 154.752 75.6742 155.044 75.7952L155.427 74.8714C155.008 74.6978 154.563 74.6123 154.098 74.6123V75.6123ZM155.046 75.7962C155.334 75.9138 155.632 76.1087 155.937 76.3958L156.622 75.6673C156.247 75.3139 155.848 75.0432 155.424 74.8704L155.046 75.7962ZM165.577 75.7084H166.13V74.7084H165.577V75.7084ZM165.705 75.4729L166.923 77.4268L167.772 76.8978L166.554 74.9439L165.705 75.4729ZM167.774 77.4232L168.97 75.4694L168.117 74.9474L166.921 76.9013L167.774 77.4232ZM168.543 75.7084H169.093V74.7084H168.543V75.7084ZM168.665 74.9487L167.158 77.4278L168.013 77.9473L169.52 75.4681L168.665 74.9487ZM167.085 77.6876V79.9585H168.085V77.6876H167.085ZM167.585 79.4585H167.116V80.4585H167.585V79.4585ZM167.616 79.9585V77.6876H166.616V79.9585H167.616ZM167.541 77.4238L166.002 74.9446L165.152 75.4721L166.691 77.9513L167.541 77.4238Z" fill="white" mask="url(#path-1-outside-1_41_704)"/>
<path d="M153.837 62.9705C151.231 62.9705 148.918 62.4958 146.898 61.5463C148.917 62.4965 151.23 62.9712 153.837 62.9705Z" fill="white"/>
<path d="M142.28 48.0166C142.015 49.2364 141.882 50.4922 141.887 51.7526C141.87 53.3951 142.113 55.0266 142.602 56.5617C142.115 55.0282 141.874 53.3988 141.892 51.7587C141.885 50.4966 142.016 49.2387 142.28 48.0166Z" fill="white"/>
<path d="M159.866 61.9009C160.085 61.7827 160.295 61.6645 160.501 61.5463C160.295 61.6645 160.085 61.7898 159.866 61.9009Z" fill="white"/>
<path d="M164.411 45.8113C164.548 46.0681 164.677 46.3285 164.797 46.5925C164.676 46.3274 164.547 46.0671 164.411 45.8113Z" fill="white"/>
<path d="M100.36 65.6928V37.7907C100.36 37.6699 100.311 37.5541 100.226 37.4687C100.14 37.3833 100.024 37.3353 99.903 37.3353H97.9732C97.8521 37.3353 97.7359 37.3833 97.6503 37.4687C97.5647 37.5541 97.5166 37.6699 97.5166 37.7907V58.1718C97.5162 58.2645 97.4875 58.3549 97.4343 58.431C97.3811 58.5071 97.306 58.5652 97.2189 58.5977C97.1318 58.6301 97.0368 58.6354 96.9467 58.6127C96.8565 58.59 96.7754 58.5405 96.7142 58.4707C96.7142 58.4707 87.2121 39.7645 78.6189 38.6596C77.9959 38.5845 77.3677 38.5625 76.7409 38.5939L76.7325 66.531H79.5768L79.5992 41.8851C86.3592 44.8633 94.937 60.08 94.937 60.08C95.0238 60.1778 96.4341 62.7676 97.9312 65.1578C99.2532 67.2615 100.36 65.9498 100.36 65.6928Z" fill="white"/>
<path d="M115.274 41.0625C117.22 39.9798 119.418 39.4192 121.651 39.4364C123.643 39.4156 125.614 39.8388 127.417 40.6745C129.055 41.4484 130.495 42.5769 131.63 43.9761C131.704 44.0674 131.81 44.1271 131.927 44.1424C132.044 44.1578 132.163 44.1278 132.258 44.0587L133.826 42.9045C133.874 42.8693 133.915 42.8251 133.946 42.7743C133.976 42.7235 133.997 42.6672 134.005 42.6086C134.014 42.5501 134.011 42.4904 133.996 42.433C133.981 42.3757 133.955 42.3218 133.919 42.2744C132.581 40.5467 130.852 39.1518 128.871 38.2011C126.706 37.1482 124.28 36.6223 121.593 36.6232C117.16 36.6232 113.468 38.0447 110.516 40.8878C107.565 43.7308 106.088 47.2263 106.087 51.3744C106.087 54.909 107.302 58.073 109.731 60.8665C112.639 64.1681 116.612 65.8189 121.651 65.8189C124.287 65.8189 126.678 65.3278 128.823 64.3455C130.777 63.4619 132.509 62.1609 133.893 60.5363C133.932 60.4893 133.961 60.4351 133.978 60.3767C133.995 60.3184 134 60.2573 133.992 60.197C133.985 60.1367 133.965 60.0785 133.935 60.026C133.904 59.9734 133.862 59.9275 133.813 59.8911L132.24 58.7205C132.149 58.6527 132.035 58.6214 131.921 58.6329C131.807 58.6444 131.702 58.6977 131.626 58.7824C128.973 61.6878 125.7 63.14 121.806 63.1391C118.149 63.1391 115.119 62.0844 112.716 59.9751C110.314 57.8657 109.112 55.0814 109.111 51.622C109.111 49.3293 109.65 47.2658 110.73 45.4316C111.816 43.5955 113.387 42.0853 115.274 41.0625Z" fill="white"/>
<path d="M164.74 61.8114C167.641 59.1388 169.092 55.7244 169.093 51.568C169.093 47.361 167.639 43.8183 164.731 40.9398C161.823 38.0613 158.211 36.6225 153.895 36.6234C151.276 36.6094 148.701 37.2952 146.439 38.6092C144.159 39.9138 142.28 41.8146 141.007 44.106C139.69 46.4218 139.006 49.0407 139.022 51.7017C139.022 55.346 140.48 58.6097 143.395 61.4928C146.311 64.3759 149.888 65.8179 154.126 65.8188C158.3 65.8234 161.838 64.4876 164.74 61.8114ZM147.226 61.1977C147.094 61.115 146.963 61.0295 146.835 60.9412C146.697 60.8474 146.558 60.7509 146.42 60.6502C146.112 60.4204 145.812 60.1745 145.518 59.9125C145.23 59.6543 144.955 59.3818 144.694 59.0961C144.47 58.8492 144.261 58.5941 144.064 58.3321C143.978 58.2181 143.895 58.1023 143.815 57.9846C143.653 57.7488 143.503 57.5074 143.363 57.2606C143.136 56.858 142.937 56.4401 142.768 56.0098C142.244 54.6343 141.985 53.1728 142.004 51.7017C141.999 50.5712 142.142 49.4448 142.427 48.3507C142.468 48.199 142.51 48.0487 142.556 47.8984C142.62 47.6901 142.695 47.4846 142.762 47.2778C142.819 47.1247 142.877 46.973 142.94 46.8213C143.126 46.3666 143.34 45.924 143.582 45.4961C143.712 45.2662 143.851 45.0419 143.998 44.8231C144.136 44.6039 144.291 44.3915 144.446 44.1846C144.758 43.7725 145.098 43.3814 145.461 43.0138L145.482 42.9931C145.964 42.513 146.487 42.0756 147.046 41.6858C147.201 41.5769 147.357 41.4707 147.516 41.3659C147.676 41.2611 147.84 41.1618 148.008 41.0653C148.424 40.8245 148.854 40.6086 149.296 40.4185C149.434 40.3564 149.585 40.2958 149.732 40.2392C149.904 40.1717 150.075 40.1013 150.249 40.0489C150.728 39.886 151.218 39.7542 151.715 39.6545L151.939 39.6118C152.128 39.5773 152.319 39.5497 152.509 39.5235C152.998 39.4596 153.49 39.4269 153.983 39.4256H154.008C154.542 39.4252 155.075 39.4597 155.604 39.529C155.865 39.5621 156.125 39.6049 156.385 39.6573C157.697 39.9209 158.957 40.397 160.115 41.0666C161.969 42.1004 163.506 43.6149 164.564 45.4492C164.696 45.6781 164.82 45.9103 164.936 46.1456C165.051 46.381 165.158 46.6195 165.255 46.8613C165.454 47.346 165.619 47.8437 165.75 48.3507C166.017 49.4028 166.149 50.4842 166.144 51.5693C166.144 52.2583 166.07 52.9453 165.923 53.6186C165.856 53.9206 165.772 54.224 165.678 54.526C165.402 55.4098 165.031 56.2611 164.57 57.0648C163.936 58.1855 163.116 59.1916 162.145 60.0407C162.095 60.0848 162.043 60.1262 161.993 60.169C161.624 60.4795 161.237 60.7678 160.834 61.0322C160.615 61.1701 160.392 61.3163 160.159 61.4459C159.18 62.0047 158.126 62.4248 157.03 62.694C156.043 62.9369 155.03 63.0587 154.014 63.0567C151.459 63.0603 149.197 62.4421 147.226 61.2019V61.1977Z" fill="white"/>
<path d="M144.034 45.1683C143.839 45.4012 143.651 45.641 143.471 45.8877C143.651 45.642 143.839 45.4022 144.034 45.1683Z" fill="white"/>
<path d="M71.2513 44.3935C71.0773 44.0854 70.888 43.7857 70.6945 43.4903C70.2611 42.7587 69.7315 42.09 69.1202 41.5024C69.1202 41.5024 69.1119 41.4939 69.1091 41.4911C68.9646 41.3595 68.8289 41.2185 68.7026 41.069C68.1669 40.5379 67.5948 40.0457 66.9905 39.596C66.7943 39.4553 66.591 39.3076 66.3878 39.174C66.2124 39.0572 66.0357 38.946 65.8575 38.8377C63.5812 37.4683 60.9834 36.7686 58.064 36.7386H57.7981C57.5055 36.7687 57.2342 36.9067 57.036 37.1263C56.8377 37.3459 56.7265 37.6316 56.7236 37.9289V37.9387C56.7233 38.1805 56.7946 38.4169 56.9283 38.6175C57.062 38.818 57.252 38.9736 57.4738 39.0642C57.613 39.1529 57.819 39.1683 58.1865 39.1514C59.5099 39.166 60.8237 39.3813 62.0839 39.7902C62.2732 39.8493 62.4584 39.9182 62.6407 39.99L62.9191 40.1011L63.3102 40.2713C63.4383 40.3318 63.5677 40.3909 63.6944 40.4542C63.8211 40.5161 63.9477 40.5851 64.0716 40.6512C64.3236 40.7919 64.5658 40.9326 64.8052 41.0873L64.8344 41.107C64.9736 41.1929 65.0989 41.2815 65.2283 41.3715C65.2589 41.3926 65.2882 41.4151 65.3188 41.4348C65.4316 41.5178 65.5415 41.5966 65.6515 41.6824C65.7169 41.7317 65.7781 41.7823 65.8408 41.8316C65.9034 41.8808 65.9953 41.9512 66.0691 42.0131C66.073 42.0176 66.0777 42.0215 66.083 42.0243C66.0997 42.0384 66.1136 42.0539 66.1289 42.0679C66.9747 42.7869 67.7222 43.6163 68.3519 44.5342C68.363 44.5511 68.3769 44.5666 68.3866 44.5806C69.6646 46.4582 70.411 48.6529 70.5452 50.9278C70.6795 53.2027 70.1965 55.4715 69.1484 57.4893C68.1003 59.5071 66.5269 61.1972 64.598 62.3773C62.6691 63.5575 60.4579 64.1827 58.2032 64.1857C57.9248 64.1857 57.6562 64.1772 57.3875 64.1575C57.297 64.1575 57.2079 64.1406 57.1203 64.1322C56.9393 64.1167 56.7611 64.1027 56.5844 64.0773H56.5412C56.4368 64.0633 56.3324 64.0464 56.228 64.0295L55.8759 63.9662C55.8579 63.9641 55.8402 63.9603 55.823 63.9549C55.6058 63.9127 55.3887 63.8635 55.1743 63.8142C55.095 63.7931 55.0184 63.7706 54.9419 63.7481C54.7901 63.7087 54.6356 63.6651 54.4853 63.6173C54.3976 63.5891 54.3113 63.5568 54.2264 63.5286C54.0872 63.4808 53.948 63.4316 53.8088 63.388L53.5402 63.2796C53.4075 63.2271 53.2766 63.1708 53.1477 63.1108L52.8971 62.994C52.7579 62.9279 52.6271 62.8604 52.4948 62.7886C52.4211 62.7492 52.3445 62.7112 52.2721 62.6719C52.1134 62.5832 51.9617 62.4918 51.8086 62.4017C51.7613 62.3722 51.7126 62.3469 51.6694 62.3159C51.4718 62.1935 51.2769 62.0613 51.089 61.9276C51.0403 61.8938 50.9929 61.8573 50.9498 61.8193C50.8106 61.7166 50.6714 61.6139 50.5392 61.5055C50.4709 61.4549 50.4 61.3972 50.3415 61.3437C50.2287 61.2495 50.116 61.1524 50.006 61.0553C49.935 60.9934 49.8668 60.9301 49.8028 60.8668C49.6984 60.7711 49.594 60.6713 49.4952 60.5686C49.427 60.5024 49.363 60.4363 49.3003 60.3716C49.1987 60.2661 49.1027 60.1577 49.0038 60.0494C48.9454 59.9833 48.8855 59.9186 48.8298 59.8496C48.7254 59.73 48.6294 59.6076 48.5306 59.4852C48.4819 59.4247 48.4345 59.3657 48.3914 59.3052C48.2522 59.1195 48.113 58.9323 47.9822 58.7424C47.6558 58.2578 47.3646 57.75 47.1108 57.223L47.0816 57.2398C47.0732 57.2201 47.0649 57.1976 47.0537 57.1765C47.0625 57.1693 47.0718 57.1627 47.0816 57.1568C47.0426 57.0738 47.0092 56.9866 46.9688 56.9008C47.0092 56.8726 47.0482 56.8403 47.0843 56.8121C50.1953 54.3754 53.3481 51.7347 55.3762 48.2681C56.1334 46.978 56.6679 45.543 56.7166 44.032C56.7318 43.5661 56.693 43.1001 56.6011 42.6433C56.4499 41.8961 56.1133 41.1999 55.6229 40.6201C55.1326 40.0403 54.5045 39.5959 53.7977 39.3287H53.781L53.6863 39.2935C52.95 39.0243 52.1629 38.9273 51.3841 39.0099C50.6054 39.0925 49.8553 39.3526 49.1904 39.7705L49.1625 39.7888C47.3961 41.055 46.0167 42.4042 44.9199 44.3724C43.97 46.0706 43.347 47.9352 43.0839 49.8677C42.9862 50.5858 42.9355 51.3096 42.9322 52.0343C42.9847 53.3031 43.1501 54.5646 43.4263 55.8034C43.4486 55.8864 43.4764 55.968 43.4987 56.051C43.521 56.134 43.5391 56.1734 43.5558 56.2367C40.8651 58.0502 37.8126 60.0874 34.948 61.5731C32.5817 62.7957 30.3546 63.6426 28.5562 63.6834C27.8602 63.6989 27.2561 63.0967 27.135 62.911C25.7612 60.8415 31.0756 46.0185 31.9832 43.7942C32.1224 43.4326 32.2615 43.0767 32.3813 42.7264C32.5963 42.0966 32.8449 41.479 33.1259 40.8763C33.5171 39.9604 32.9867 38.7294 32.4578 37.9106C32.2886 37.6324 32.0517 37.4026 31.7699 37.2431C31.488 37.0835 31.1704 36.9995 30.8473 36.9989H30.8348C25.274 37.0678 13.0639 48.949 8.47045 53.4187L7.9262 53.9491L10.6196 45.2264C16.5215 26.768 18.6929 22.0676 27.8324 2.7383C28.2583 1.86321 27.753 0.847434 27.0418 0.40567C26.6204 0.262182 26.1622 0.274975 25.7493 0.441758C25.3364 0.60854 24.9957 0.918423 24.7882 1.31593C14.4683 23.0271 11.2446 31.1687 4.44217 54.0223C1.82949 62.942 1.59704 64.09 1.56224 64.7512C1.47872 65.7586 2.20532 66.3509 2.91938 66.4789C3.63345 66.6069 4.50481 66.2904 4.76649 65.2985L5.28012 63.4864C7.02005 58.9928 22.4818 43.1498 29.0698 40.8861L29.312 40.8031L29.2132 41.0423C28.0064 43.911 22.891 60.8457 23.4798 62.956C23.8974 65.3182 27.0306 66.4733 28.4518 66.531C29.6684 66.462 32.3325 66.054 36.2954 64.1392C38.5949 63.0264 41.3273 61.4042 44.4661 59.0477C44.5566 58.9788 44.6554 58.907 44.757 58.8339C44.7646 58.8454 44.7711 58.8577 44.7765 58.8704C45.4884 60.0559 46.3441 61.1467 47.3238 62.1175C49.8877 64.6922 52.9597 66.1403 56.5398 66.462C57.0507 66.507 57.5754 66.531 58.1085 66.531C62.302 66.531 65.8584 65.1672 68.7778 62.4397C71.6972 59.7122 73.1554 56.2278 73.1527 51.9865C73.1527 49.1577 72.5189 46.6267 71.2513 44.3935ZM46.0348 54.0448C46.0237 53.9871 46.0125 53.9308 46 53.8703C45.8796 53.1777 45.8177 52.4759 45.8149 51.7727C45.8152 51.2836 45.8445 50.795 45.9026 50.3095C45.9193 50.1477 45.9416 49.9845 45.9666 49.8255C45.9471 49.9662 45.9276 50.1069 45.9137 50.2476L45.9722 49.9057C46.0376 49.5892 46.1114 49.2754 46.1893 48.9645C46.3657 48.303 46.5786 47.652 46.8268 47.0146C46.8783 46.8837 46.9312 46.7501 46.9855 46.6192L47.0245 46.5222C47.0635 46.4391 47.0983 46.3533 47.1372 46.2675C47.2528 46.0115 47.3739 45.7554 47.5061 45.5036C47.6105 45.3038 47.726 45.1082 47.843 44.9113L47.6871 45.1504C47.7529 45.036 47.8225 44.9249 47.8959 44.817C48.3596 44.1118 48.8936 43.4565 49.4896 42.8614L49.5537 42.8009L49.633 42.7334C49.6572 42.7098 49.6827 42.6877 49.7096 42.6673C49.743 42.6448 49.9016 42.5266 49.9323 42.5027C50.0589 42.414 50.1884 42.3282 50.322 42.2508C50.4264 42.1917 50.5308 42.1312 50.6338 42.0778L50.773 42.006C51.0205 41.8931 51.2809 41.8118 51.5483 41.764C51.5817 41.7556 51.7432 41.7275 51.8044 41.7148C51.8044 41.7148 51.9659 41.705 52.0452 41.6979C52.3591 41.6924 52.6721 41.7317 52.9751 41.8147C53.2128 41.9151 53.4161 42.0838 53.5597 42.3001C53.6721 42.4835 53.7654 42.6782 53.8381 42.8811C53.8784 43.012 53.9146 43.147 53.9425 43.2807C53.9536 43.3313 53.9619 43.3834 53.9717 43.4368C53.9717 43.4664 53.98 43.5114 53.9856 43.5621C54.0019 43.8617 53.9972 44.1621 53.9717 44.4611C53.9717 44.4611 53.9717 44.4807 53.9717 44.4976C53.9619 44.5427 53.9508 44.6144 53.948 44.6313C53.9161 44.8093 53.8747 44.9854 53.8241 45.1589C53.7558 45.415 53.6712 45.6664 53.5708 45.9116C53.5513 45.9425 53.4316 46.1929 53.4205 46.2309C53.3453 46.3815 53.2688 46.5334 53.1866 46.6811C52.8731 47.2345 52.5316 47.7713 52.1635 48.2892C52.048 48.451 51.9297 48.6142 51.8128 48.776C51.7543 48.8506 51.6917 48.9251 51.6332 48.9983C51.1418 49.5875 50.621 50.151 50.0728 50.6865C48.799 51.9315 47.4633 53.1101 46.071 54.2178C46.0599 54.1616 46.046 54.1011 46.0348 54.0448Z" fill="white"/>
</svg>
