<svg xmlns="http://www.w3.org/2000/svg" xmlns:xlink="http://www.w3.org/1999/xlink" viewBox="0 0 1235.23 593.4"><defs><style>.cls-1{fill:none;}.cls-2{fill:#b882fe;}.cls-3{fill:url(#Gradiente_sem_nome_51);}.cls-4{fill:url(#Gradiente_sem_nome_59);}.cls-5{fill:url(#Gradiente_sem_nome_57);}.cls-6{fill:url(#Gradiente_sem_nome_57-2);}.cls-7{fill:url(#Gradiente_sem_nome_57-3);}.cls-8{fill:url(#Gradiente_sem_nome_57-4);}.cls-9{fill:url(#Gradiente_sem_nome_57-5);}.cls-10{fill:url(#Gradiente_sem_nome_51-2);}.cls-11{fill:url(#Gradiente_sem_nome_51-3);}</style><linearGradient id="Gradiente_sem_nome_51" x1="9.61" y1="374.76" x2="725.7" y2="374.76" gradientUnits="userSpaceOnUse"><stop offset="0" stop-color="#b882fe"/><stop offset="0.37" stop-color="#a07cf9"/><stop offset="0.67" stop-color="#8976f4"/><stop offset="1" stop-color="#818eff"/></linearGradient><linearGradient id="Gradiente_sem_nome_59" x1="766.1" y1="372.25" x2="966.13" y2="372.25" gradientUnits="userSpaceOnUse"><stop offset="0" stop-color="#818eff"/><stop offset="1" stop-color="#7ba9f6"/></linearGradient><linearGradient id="Gradiente_sem_nome_57" x1="999.5" y1="372.53" x2="1216.23" y2="372.53" gradientUnits="userSpaceOnUse"><stop offset="0" stop-color="#7ba9f6"/><stop offset="0.29" stop-color="#7caef7"/><stop offset="0.65" stop-color="#80befa"/><stop offset="1" stop-color="#85d4ff"/></linearGradient><linearGradient id="Gradiente_sem_nome_57-2" x1="999.5" y1="287.51" x2="1216.23" y2="287.51" xlink:href="#Gradiente_sem_nome_57"/><linearGradient id="Gradiente_sem_nome_57-3" x1="999.5" y1="333.44" x2="1216.23" y2="333.44" xlink:href="#Gradiente_sem_nome_57"/><linearGradient id="Gradiente_sem_nome_57-4" x1="999.5" y1="440.4" x2="1216.23" y2="440.4" xlink:href="#Gradiente_sem_nome_57"/><linearGradient id="Gradiente_sem_nome_57-5" x1="999.5" y1="287.15" x2="1216.23" y2="287.15" xlink:href="#Gradiente_sem_nome_57"/><linearGradient id="Gradiente_sem_nome_51-2" x1="414.58" y1="267.02" x2="431.8" y2="267.02" xlink:href="#Gradiente_sem_nome_51"/><linearGradient id="Gradiente_sem_nome_51-3" x1="19" y1="243.45" x2="532.38" y2="243.45" xlink:href="#Gradiente_sem_nome_51"/></defs><g id="Camada_3" data-name="Camada 3"><polygon class="cls-1" points="303.42 570.49 314.66 570.49 309.08 558.59 303.42 570.49"/><path class="cls-1" d="M378.07,354.08l1.3-1.58,2.51-3.46a132.53,132.53,0,0,0,7.34-11.41c.58-1.05,1.13-2.12,1.67-3.19.13-.24.93-2,1.08-2.27a47.28,47.28,0,0,0,1.82-5.34c.36-1.23.64-2.46.89-3.74,0-.12.1-.62.16-.95,0-.12,0-.22,0-.26a45.11,45.11,0,0,0,.1-6.37c0-.36-.08-.69-.1-.89-.06-.38-.12-.75-.2-1.11-.21-.95-.47-1.9-.75-2.83a21.83,21.83,0,0,0-2-4.13,9.46,9.46,0,0,0-4.19-3.44,23.83,23.83,0,0,0-6.67-.83c-.57.05-1.7.12-1.72.12-.45.09-1.6.29-1.84.35a23.47,23.47,0,0,0-5.57,1.72l-1,.5c-.74.39-1.49.81-2.24,1.24-.95.54-1.88,1.15-2.79,1.78-.22.16-1.36,1-1.6,1.17a4.74,4.74,0,0,0-.55.46c-.18.17-.38.33-.56.49l-.47.42a88.69,88.69,0,0,0-11.42,13.88c-.53.77-1,1.56-1.5,2.36.36-.56.75-1.13,1.11-1.69-.83,1.39-1.66,2.79-2.4,4.2-.95,1.78-1.82,3.6-2.65,5.42-.29.61-.53,1.21-.81,1.8,0,.1-.18.45-.29.69-.38.93-.76,1.88-1.13,2.81A130.11,130.11,0,0,0,339,353.83c-.58,2.21-1.09,4.43-1.56,6.68l-.42,2.42c.1-1,.24-2,.38-3-.18,1.13-.34,2.29-.46,3.44a86.45,86.45,0,0,0-.63,10.37,88,88,0,0,0,1.32,14.89q.12.63.24,1.23h0c.08.43.18.83.26,1.25a373.68,373.68,0,0,0,28.7-25.05A162.19,162.19,0,0,0,378.07,354.08Z"/><path class="cls-1" d="M555.58,556.34a13.89,13.89,0,0,0-7-1.89,13.94,13.94,0,0,0-12,7,14.29,14.29,0,0,0-1.81,7.15,12.14,12.14,0,0,0,4,9.47,14.65,14.65,0,0,0,16.8,1.77,13.32,13.32,0,0,0,5.07-5.06,12.84,12.84,0,0,0,1.81-6.33,14,14,0,0,0-1.81-7.06A13.54,13.54,0,0,0,555.58,556.34Z"/><path class="cls-1" d="M1015.53,556.34a13.9,13.9,0,0,0-7-1.89,13.91,13.91,0,0,0-12,7,14.29,14.29,0,0,0-1.82,7.15,12.15,12.15,0,0,0,4,9.47,14.65,14.65,0,0,0,16.8,1.77,13.22,13.22,0,0,0,5.06-5.06,12.75,12.75,0,0,0,1.82-6.33,13.93,13.93,0,0,0-1.82-7.06A13.44,13.44,0,0,0,1015.53,556.34Z"/><path class="cls-1" d="M831.55,556.34a13.9,13.9,0,0,0-7-1.89,13.94,13.94,0,0,0-12,7,14.29,14.29,0,0,0-1.82,7.15,12.15,12.15,0,0,0,4,9.47,14.65,14.65,0,0,0,16.8,1.77,13.32,13.32,0,0,0,5.07-5.06,12.84,12.84,0,0,0,1.81-6.33,14,14,0,0,0-1.81-7.06A13.54,13.54,0,0,0,831.55,556.34Z"/><polygon class="cls-2" points="41.19 565.41 24.49 565.41 24.49 551.65 21.19 551.65 21.19 584.45 24.49 584.45 24.49 568.63 41.19 568.63 41.19 584.45 44.46 584.45 44.46 551.65 41.19 551.65 41.19 565.41"/><path class="cls-2" d="M133.79,571a23.46,23.46,0,0,1-.35,5.11,9.84,9.84,0,0,1-1.46,3.18,6.49,6.49,0,0,1-3.83,2.11,9.43,9.43,0,0,1-4.44.29,8.53,8.53,0,0,1-3.73-.88,6.63,6.63,0,0,1-2.73-2.16,7.29,7.29,0,0,1-1.13-3.24A36.15,36.15,0,0,1,116,571V551.24h-3.27V571a26.3,26.3,0,0,0,.62,6.93,9.14,9.14,0,0,0,3.77,5,11.94,11.94,0,0,0,6.8,1.9q6.3,0,8.88-2a9.66,9.66,0,0,0,3.44-4.71,24,24,0,0,0,.86-7.12V551.24h-3.27Z"/><polygon class="cls-2" points="230.15 551.65 216.97 578.54 203.63 551.65 203.1 551.65 198.44 584.45 201.6 584.45 204.78 560.83 216.53 584.45 217.37 584.45 228.96 560.98 232.16 584.45 235.42 584.45 230.68 551.65 230.15 551.65"/><path class="cls-2" d="M308.69,551.65l-15.51,32.8h3.67L302,573.63h14.16l5.15,10.82h3.5l-15.29-32.8Zm-5.27,18.84,5.66-11.9,5.58,11.9Z"/><polygon class="cls-2" points="410.67 576.75 388.86 551.65 388.15 551.65 388.15 584.45 391.56 584.45 391.56 559.65 413.14 584.45 413.9 584.45 413.9 551.65 410.67 551.65 410.67 576.75"/><path class="cls-2" d="M548.43,551.22a16.79,16.79,0,0,0-8.56,2.29,16.41,16.41,0,0,0-6.23,6.33,17.56,17.56,0,0,0-2.28,8.76,15.51,15.51,0,0,0,5,11.29,16.79,16.79,0,0,0,12.32,5,17.32,17.32,0,0,0,12.19-4.62,15.37,15.37,0,0,0,5-11.81,16.62,16.62,0,0,0-5-12.26A17,17,0,0,0,548.43,551.22Zm12.26,23.56a13.32,13.32,0,0,1-5.07,5.06,14.65,14.65,0,0,1-16.8-1.77,12.14,12.14,0,0,1-4-9.47,14.29,14.29,0,0,1,1.81-7.15,13.94,13.94,0,0,1,12-7,13.89,13.89,0,0,1,7,1.89,13.54,13.54,0,0,1,5.11,5,14,14,0,0,1,1.81,7.06A12.84,12.84,0,0,1,560.69,574.78Z"/><polygon class="cls-2" points="650.25 576.75 628.45 551.65 627.74 551.65 627.74 584.45 631.14 584.45 631.14 559.65 652.73 584.45 653.48 584.45 653.48 551.65 650.25 551.65 650.25 576.75"/><path class="cls-2" d="M727.05,556.3a14.59,14.59,0,0,1,7.27-1.88,15.18,15.18,0,0,1,6.59,1.43,14,14,0,0,1,5.12,4.21l2.61-1.94a16.08,16.08,0,0,0-6.08-5.12,18.5,18.5,0,0,0-8.3-1.83,17.37,17.37,0,0,0-12.64,4.94,16.81,16.81,0,0,0-.9,23.09q5,5.71,13.6,5.72a19.18,19.18,0,0,0,8.19-1.7,16.48,16.48,0,0,0,6.13-4.82l-2.61-2a14.58,14.58,0,0,1-11.53,5.4,15,15,0,0,1-10.37-3.66,12.32,12.32,0,0,1-4.12-9.66,14,14,0,0,1,1.85-7.15A13.57,13.57,0,0,1,727.05,556.3Z"/><path class="cls-2" d="M824.4,551.22a16.77,16.77,0,0,0-8.56,2.29,16.41,16.41,0,0,0-6.23,6.33,17.56,17.56,0,0,0-2.28,8.76,15.51,15.51,0,0,0,5,11.29,16.77,16.77,0,0,0,12.32,5,17.28,17.28,0,0,0,12.18-4.62,15.35,15.35,0,0,0,5-11.81,16.62,16.62,0,0,0-5-12.26A17,17,0,0,0,824.4,551.22Zm12.26,23.56a13.32,13.32,0,0,1-5.07,5.06,14.65,14.65,0,0,1-16.8-1.77,12.15,12.15,0,0,1-4-9.47,14.29,14.29,0,0,1,1.82-7.15,13.94,13.94,0,0,1,12-7,13.9,13.9,0,0,1,7,1.89,13.54,13.54,0,0,1,5.11,5,14,14,0,0,1,1.81,7.06A12.84,12.84,0,0,1,836.66,574.78Z"/><polygon class="cls-2" points="911.92 551.65 908.63 551.65 908.63 584.45 924.53 584.45 924.53 581.29 911.92 581.29 911.92 551.65"/><path class="cls-2" d="M1008.38,551.22a16.77,16.77,0,0,0-8.56,2.29,16.5,16.5,0,0,0-6.24,6.33,17.66,17.66,0,0,0-2.27,8.76,15.51,15.51,0,0,0,5,11.29,16.77,16.77,0,0,0,12.32,5,17.28,17.28,0,0,0,12.18-4.62,15.35,15.35,0,0,0,5-11.81,16.62,16.62,0,0,0-5-12.26A17,17,0,0,0,1008.38,551.22Zm12.25,23.56a13.22,13.22,0,0,1-5.06,5.06,14.65,14.65,0,0,1-16.8-1.77,12.15,12.15,0,0,1-4-9.47,14.29,14.29,0,0,1,1.82-7.15,13.91,13.91,0,0,1,12-7,13.9,13.9,0,0,1,7,1.89,13.44,13.44,0,0,1,5.1,5,13.93,13.93,0,0,1,1.82,7.06A12.75,12.75,0,0,1,1020.63,574.78Z"/><path class="cls-2" d="M1103.92,571.54h10.46a11.27,11.27,0,0,1-4.17,7.39,13.09,13.09,0,0,1-8.55,2.85,15.89,15.89,0,0,1-7.66-1.89,14,14,0,0,1-5.5-5.22,13.55,13.55,0,0,1-2-7,12,12,0,0,1,1.93-6.15,13.87,13.87,0,0,1,5.41-5.13,15,15,0,0,1,7.33-1.9,16.16,16.16,0,0,1,6.38,1.39,19.35,19.35,0,0,1,6,4.09l2.55-2.41a23.91,23.91,0,0,0-7.19-4.83,20.34,20.34,0,0,0-7.83-1.52,18.68,18.68,0,0,0-9.25,2.28,17.59,17.59,0,0,0-6.42,5.93,15,15,0,0,0-2.33,8.32,16.43,16.43,0,0,0,4.09,11q5.31,6.19,14.37,6.19,7.53,0,12-4.46t4.5-12.08h-14.11Z"/><polygon class="cls-2" points="1192.64 564.46 1184.25 550.97 1180.45 550.97 1191.05 568.09 1191.05 583.77 1194.27 583.77 1194.27 568.09 1204.65 550.97 1200.87 550.97 1192.64 564.46"/><path class="cls-1" d="M1073.55,294.34a89.52,89.52,0,0,0-9.28,4.67c-1.21.7-2.39,1.44-3.54,2.19,1.15-.75,2.33-1.49,3.54-2.19A89.52,89.52,0,0,1,1073.55,294.34Z"/><path class="cls-1" d="M1107.52,458.2q-27.55,0-48.9-13.47,21.35,13.47,48.9,13.47a90.25,90.25,0,0,0,21.74-2.63A90.25,90.25,0,0,1,1107.52,458.2Z"/><path class="cls-1" d="M1024.08,351.74A95.08,95.08,0,0,0,1021,376a84.93,84.93,0,0,0,5.51,31.18A84.93,84.93,0,0,1,1021,376,95.08,95.08,0,0,1,1024.08,351.74Z"/><path class="cls-1" d="M1129.26,455.57a87.77,87.77,0,0,0,22.55-9c1.67-.95,3.28-2,4.86-3-1.58,1-3.19,2.06-4.86,3A87.77,87.77,0,0,1,1129.26,455.57Z"/><path class="cls-1" d="M1166.13,436.34a82.7,82.7,0,0,0,17.47-21.53,92.94,92.94,0,0,0,8-18.38,92.94,92.94,0,0,1-8,18.38A82.91,82.91,0,0,1,1166.13,436.34Z"/><path class="cls-1" d="M1183.6,330.74q1.43,2.47,2.67,5-1.24-2.55-2.67-5A84.84,84.84,0,0,0,1151.53,299,84.84,84.84,0,0,1,1183.6,330.74Z"/><path class="cls-1" d="M1129.26,455.57a87.77,87.77,0,0,0,22.55-9c1.67-.95,3.28-2,4.86-3a87.17,87.17,0,0,0,8.35-6.24c.37-.31.75-.62,1.11-.94a82.91,82.91,0,0,0,17.47-21.53,92.94,92.94,0,0,0,8-18.38c.68-2.19,1.29-4.38,1.76-6.56A70.28,70.28,0,0,0,1195,375a93.05,93.05,0,0,0-2.85-23.29,85.12,85.12,0,0,0-3.55-10.79c-.72-1.75-1.49-3.47-2.32-5.18s-1.72-3.38-2.67-5A84.84,84.84,0,0,0,1151.53,299a88.81,88.81,0,0,0-26.89-10.2q-2.79-.56-5.62-.92a87.57,87.57,0,0,0-11.5-.75h-.18a83.24,83.24,0,0,0-10.63.71c-1.37.18-2.75.39-4.11.64-.54.09-1.07.2-1.61.31a84.26,84.26,0,0,0-10.57,2.85c-1.25.43-2.49.89-3.73,1.37-1,.42-2.1.85-3.14,1.31a89.52,89.52,0,0,0-9.28,4.67c-1.21.7-2.39,1.44-3.54,2.19s-2.28,1.52-3.4,2.31a85.9,85.9,0,0,0-11.27,9.46l-.14.15a85.67,85.67,0,0,0-7.32,8.47q-1.68,2.25-3.24,4.62t-3,4.88a85.39,85.39,0,0,0-4.63,9.59c-.45,1.09-.87,2.19-1.27,3.3-.54,1.49-1,3-1.5,4.49-.32,1.09-.63,2.18-.92,3.27A95.08,95.08,0,0,0,1021,376a84.93,84.93,0,0,0,5.51,31.18,72.78,72.78,0,0,0,4.29,9.05q1.52,2.68,3.25,5.24.87,1.27,1.8,2.52c1.42,1.9,2.93,3.74,4.55,5.53a82.86,82.86,0,0,0,5.94,5.91q3.17,2.83,6.5,5.33c1,.73,2,1.43,2.94,2.11s1.87,1.26,2.82,1.86q21.35,13.47,48.9,13.47A90.25,90.25,0,0,0,1129.26,455.57Z"/><path class="cls-3" d="M725.7,473.13V273.74a3.26,3.26,0,0,0-3.26-3.26H708.7a3.26,3.26,0,0,0-3.26,3.26V419.35a3.26,3.26,0,0,1-5.72,2.14S632,287.84,570.76,279.94a78.66,78.66,0,0,0-13.39-.47L557.31,479h20.27l.17-176.09c48.17,21.28,109.3,130,109.3,130,.62.7,10.67,19.21,21.34,36.28C717.82,484.3,725.7,474.93,725.7,473.13Z"/><path class="cls-4" d="M831.92,298.53a91.5,91.5,0,0,1,45.68-11.8,94.85,94.85,0,0,1,41.3,8.95,86.59,86.59,0,0,1,30.18,24,3.28,3.28,0,0,0,4.5.6l11.23-8.38a3.25,3.25,0,0,0,.67-4.57,101.35,101.35,0,0,0-36.17-29.52q-23.25-11.46-52.13-11.45-47.62,0-79.35,31T766.1,373.36q0,38.46,26.11,68.87,31.23,36,85.39,36,28.32,0,51.37-10.69a103.85,103.85,0,0,0,36.32-27.64,3.25,3.25,0,0,0-.57-4.67l-11.27-8.5a3.27,3.27,0,0,0-4.4.45q-28.5,31.62-70.34,31.61-39.3,0-65.12-23t-25.83-60.6q0-25,11.6-44.92A85.09,85.09,0,0,1,831.92,298.53Z"/><path class="cls-5" d="M1184.85,449.17q31.38-29,31.38-74.14,0-45.67-31.45-76.92t-78.09-31.24A105.54,105.54,0,0,0,1053,281.24,103.91,103.91,0,0,0,1013.8,321a110.3,110.3,0,0,0-14.3,55q0,39.57,31.52,70.88t77.33,31.31Q1153.47,478.19,1184.85,449.17Zm-126.23-4.44q-1.42-.9-2.82-1.86c-1-.68-2-1.38-2.94-2.11q-3.33-2.49-6.5-5.33a82.86,82.86,0,0,1-5.94-5.91c-1.62-1.79-3.13-3.63-4.55-5.53q-.93-1.25-1.8-2.52-1.74-2.55-3.25-5.24a72.78,72.78,0,0,1-4.29-9.05A84.93,84.93,0,0,1,1021,376a95.08,95.08,0,0,1,3.06-24.26c.29-1.09.6-2.18.92-3.27.46-1.51,1-3,1.5-4.49.4-1.11.82-2.21,1.27-3.3a85.39,85.39,0,0,1,4.63-9.59q1.41-2.5,3-4.88t3.24-4.62a85.67,85.67,0,0,1,7.32-8.47l.14-.15a85.9,85.9,0,0,1,11.27-9.46c1.12-.79,2.25-1.56,3.4-2.31s2.33-1.49,3.54-2.19a89.52,89.52,0,0,1,9.28-4.67c1-.46,2.09-.89,3.14-1.31,1.24-.48,2.48-.94,3.73-1.37a84.26,84.26,0,0,1,10.57-2.85c.54-.11,1.07-.22,1.61-.31,1.36-.25,2.74-.46,4.11-.64a83.24,83.24,0,0,1,10.63-.71h.18a87.57,87.57,0,0,1,11.5.75q2.84.36,5.62.92a88.81,88.81,0,0,1,26.89,10.2,84.84,84.84,0,0,1,32.07,31.73q1.43,2.47,2.67,5c.83,1.71,1.6,3.43,2.32,5.18a85.12,85.12,0,0,1,3.55,10.79A93.05,93.05,0,0,1,1195,375a70.28,70.28,0,0,1-1.6,14.84c-.47,2.18-1.08,4.37-1.76,6.56a92.94,92.94,0,0,1-8,18.38,82.7,82.7,0,0,1-17.47,21.53c-.36.32-.74.63-1.11.94a87.17,87.17,0,0,1-8.35,6.24c-1.58,1-3.19,2.06-4.86,3a87.77,87.77,0,0,1-22.55,9,90.25,90.25,0,0,1-21.74,2.63Q1080,458.2,1058.62,444.73Z"/><path class="cls-6" d="M1096.71,287.86a83.24,83.24,0,0,1,10.63-.71A83.24,83.24,0,0,0,1096.71,287.86Z"/><path class="cls-7" d="M1035.36,326.21q-1.54,2.37-3,4.88a85.39,85.39,0,0,0-4.63,9.59,85.39,85.39,0,0,1,4.63-9.59Q1033.81,328.59,1035.36,326.21Z"/><path class="cls-8" d="M1165,437.28a87.17,87.17,0,0,1-8.35,6.24A87.17,87.17,0,0,0,1165,437.28Z"/><path class="cls-9" d="M1107.52,287.14h0Z"/><path class="cls-10" d="M424.2,267.07a8.43,8.43,0,0,0-1-.1,8.85,8.85,0,0,0-.9.09h.56Z"/><path class="cls-11" d="M518.75,321.37c-1.26-2.18-2.61-4.3-4-6.41-3.25-5-5.94-9.06-11.28-14.09,0,0-.06-.06-.08-.08a32.05,32.05,0,0,1-2.92-3s0,0,0,0a113,113,0,0,0-12.27-10.45c-1.42-1-2.87-2-4.33-3-1.25-.83-2.53-1.62-3.8-2.39q-24.43-14.58-55.82-14.91l-1.35,0h-.56a8.59,8.59,0,0,0-7.7,8.45s0,.05,0,.07a8.61,8.61,0,0,0,5.38,8c1,.62,2.48.73,5.11.61A95.35,95.35,0,0,1,453,288.7c1.36.43,2.69.91,4,1.42l2,.79a0,0,0,0,1,0,0l2.81,1.21,0,0c.91.43,1.84.85,2.75,1.3a0,0,0,0,1,0,0c.91.44,1.82.93,2.71,1.39,1.8,1,3.54,2,5.26,3.1l.2.14c1,.6,1.9,1.23,2.83,1.88l.65.44c.81.59,1.6,1.16,2.38,1.76.47.35.91.71,1.36,1.05s1.11.85,1.64,1.3a.35.35,0,0,0,.1.08c.12.1.22.2.32.3A89.12,89.12,0,0,1,498,322.36a0,0,0,0,0,0,0c.08.12.18.22.24.32A88.77,88.77,0,0,1,425.13,461.8c-2,0-3.92-.06-5.84-.21-.65,0-1.3-.12-1.92-.18-1.3-.1-2.57-.2-3.85-.38l-.3,0c-.75-.1-1.5-.23-2.24-.35s-1.68-.28-2.53-.44a2.45,2.45,0,0,1-.39-.08c-1.55-.31-3.11-.65-4.65-1l-1.66-.47c-1.09-.28-2.2-.59-3.27-.93-.63-.2-1.26-.42-1.86-.63-1-.34-2-.68-3-1.05l-1.92-.76c-1-.37-1.89-.77-2.81-1.2l-1.8-.83c-1-.46-1.94-.95-2.89-1.45-.52-.29-1.07-.55-1.6-.83-1.13-.63-2.22-1.28-3.31-1.93-.35-.2-.69-.38-1-.6-1.42-.87-2.82-1.8-4.17-2.75-.34-.24-.69-.51-1-.77-1-.73-2-1.46-3-2.23-.49-.36-.95-.76-1.42-1.15-.81-.67-1.62-1.35-2.41-2-.5-.45-1-.89-1.45-1.34-.75-.68-1.5-1.39-2.21-2.12-.48-.46-1-.93-1.39-1.39-.73-.75-1.42-1.52-2.13-2.29-.42-.46-.85-.93-1.25-1.42-.75-.84-1.44-1.71-2.14-2.58-.35-.43-.69-.85-1-1.28-1-1.31-2-2.65-2.94-4a87.38,87.38,0,0,1-6.25-10.78l-.2.12a4.28,4.28,0,0,0-.2-.44,1,1,0,0,1,.2-.15.07.07,0,0,1,0,0c-.28-.58-.52-1.21-.81-1.82,0,0,0,0,0,0,.29-.2.57-.42.83-.62,22.31-17.3,44.92-36,59.46-60.61,5.42-9.17,9.26-19.34,9.6-30.06a42.85,42.85,0,0,0-.82-9.85,32,32,0,0,0-20-23.28l-.12,0-.67-.26a37.14,37.14,0,0,0-32.24,3.39l-.2.13c-12.66,9-22.56,18.55-30.42,32.51a109.57,109.57,0,0,0-13.16,39,116.45,116.45,0,0,0-1.1,15.37,151.78,151.78,0,0,0,3.54,26.74c.16.58.37,1.17.53,1.76s.28.87.4,1.31c-19.29,12.86-41.17,27.32-61.72,37.86-16.93,8.68-32.92,14.68-45.82,14.95-5,.1-9.33-4.17-10.2-5.48-9.85-14.69,28.25-119.85,34.77-135.62,1-2.57,1.94-5.1,2.85-7.59a130.93,130.93,0,0,1,5.34-13.08c2.81-6.49-1-15.23-4.8-21A13.56,13.56,0,0,0,229,268.91H229c-39.88.49-127.43,84.78-160.38,116.49l-3.9,3.76L84,327.24c42.33-131,57.88-164.3,123.43-301.47,3.05-6.21-.57-13.41-5.66-16.54a13.4,13.4,0,0,0-16.16,6.45c-74,154.12-97.12,211.9-145.89,374C20.93,453,19.29,461.14,19.05,465.81c-.61,7.14,4.61,11.35,9.72,12.26s11.37-1.34,13.25-8.38l3.68-12.86C58.18,425,169,312.56,216.29,296.5l1.74-.59-.71,1.7C208.66,318,172,438.1,176.2,453.07c3,16.76,25.46,24.93,35.66,25.36,8.71-.49,27.82-3.38,56.24-17,16.48-7.89,36.08-19.39,58.59-36.12.64-.48,1.35-1,2.08-1.51a1.65,1.65,0,0,1,.14.26,118.1,118.1,0,0,0,18.26,23q27.57,27.39,66.09,30.82c3.66.33,7.42.49,11.25.49q45.11,0,76.5-29t31.37-74.16Q532.38,345.15,518.75,321.37ZM337.93,389.85h0q-.12-.6-.24-1.23a88,88,0,0,1-1.32-14.89,86.45,86.45,0,0,1,.63-10.37c.12-1.15.28-2.31.46-3.44-.14,1-.28,2-.38,3l.42-2.42c.47-2.25,1-4.47,1.56-6.68A130.11,130.11,0,0,1,343.61,340c.37-.93.75-1.88,1.13-2.81.11-.24.25-.59.29-.69.28-.59.52-1.19.81-1.8.83-1.82,1.7-3.64,2.65-5.42.74-1.41,1.57-2.81,2.4-4.2-.36.56-.75,1.13-1.11,1.69.47-.8,1-1.59,1.5-2.36a88.69,88.69,0,0,1,11.42-13.88l.47-.42c.18-.16.38-.32.56-.49a4.74,4.74,0,0,1,.55-.46c.24-.16,1.38-1,1.6-1.17.91-.63,1.84-1.24,2.79-1.78.75-.43,1.5-.85,2.24-1.24l1-.5a23.47,23.47,0,0,1,5.57-1.72c.24-.06,1.39-.26,1.84-.35,0,0,1.15-.07,1.72-.12a23.83,23.83,0,0,1,6.67.83,9.46,9.46,0,0,1,4.19,3.44,21.83,21.83,0,0,1,2,4.13c.28.93.54,1.88.75,2.83.08.36.14.73.2,1.11,0,.2.06.53.1.89a45.11,45.11,0,0,1-.1,6.37s0,.14,0,.26c-.06.33-.14.83-.16.95-.25,1.28-.53,2.51-.89,3.74a47.28,47.28,0,0,1-1.82,5.34c-.15.23-1,2-1.08,2.27-.54,1.07-1.09,2.14-1.67,3.19A132.53,132.53,0,0,1,381.88,349l-2.51,3.46-1.3,1.58a162.19,162.19,0,0,1-11.18,12,373.68,373.68,0,0,1-28.7,25.05C338.11,390.68,338,390.28,337.93,389.85Z"/></g></svg>