<svg width="1197" height="578" viewBox="0 0 1197 578" fill="none" xmlns="http://www.w3.org/2000/svg">
<path d="M283.461 561.141L282.781 562.57H284.364H295.602H297.176L296.508 561.145L290.929 549.254L290.03 547.338L289.12 549.249L283.461 561.141Z" stroke="#B882FE" stroke-width="2"/>
<path d="M529.477 544.542L529.471 544.542C526.859 544.559 524.297 545.26 522.041 546.575C519.785 547.891 517.913 549.774 516.613 552.039L516.613 552.039L516.607 552.049C515.307 554.377 514.64 557.004 514.67 559.669C514.602 561.581 514.952 563.484 515.697 565.247C516.445 567.016 517.573 568.601 519 569.888L519.005 569.892L519.011 569.897C521.441 572.025 524.47 573.349 527.682 573.687C530.895 574.025 534.134 573.362 536.954 571.787L536.956 571.785C539.232 570.507 541.114 568.63 542.4 566.36C543.628 564.297 544.299 561.951 544.345 559.551H544.345L544.345 559.544C544.378 556.897 543.709 554.289 542.406 551.985L542.403 551.98C541.112 549.722 539.237 547.851 536.975 546.564C534.699 545.239 532.112 544.541 529.477 544.542Z" stroke="#B882FE" stroke-width="2"/>
<path d="M989.34 544.542L989.335 544.542C986.722 544.555 984.158 545.255 981.901 546.571C979.644 547.887 977.772 549.773 976.474 552.04L976.474 552.04L976.47 552.048C975.166 554.375 974.495 557.002 974.522 559.669C974.455 561.581 974.806 563.484 975.55 565.246C976.298 567.016 977.425 568.6 978.852 569.887L978.857 569.892L978.863 569.897C981.293 572.025 984.322 573.349 987.535 573.687C990.747 574.025 993.986 573.362 996.806 571.787L996.808 571.786C999.083 570.51 1000.96 568.633 1002.24 566.36C1003.48 564.3 1004.15 561.952 1004.2 559.55L1004.2 559.544C1004.23 556.895 1003.56 554.286 1002.25 551.983C1000.96 549.723 999.096 547.85 996.838 546.564C994.561 545.239 991.974 544.541 989.34 544.542Z" stroke="#B882FE" stroke-width="2"/>
<path d="M805.395 544.542V544.542L805.388 544.542C802.776 544.559 800.215 545.26 797.958 546.575C795.702 547.891 793.83 549.774 792.53 552.039L792.53 552.039L792.525 552.048C791.221 554.375 790.55 557.002 790.577 559.669C790.51 561.581 790.861 563.484 791.605 565.246C792.353 567.016 793.48 568.6 794.907 569.887L794.912 569.892L794.918 569.897C797.348 572.025 800.377 573.349 803.59 573.687C806.802 574.025 810.041 573.362 812.861 571.787L812.863 571.785C815.139 570.507 817.022 568.63 818.307 566.36C819.536 564.297 820.206 561.951 820.252 559.551H820.252L820.252 559.544C820.285 556.897 819.616 554.289 818.313 551.985L818.311 551.981C817.022 549.723 815.151 547.853 812.893 546.564C810.616 545.239 808.029 544.541 805.395 544.542Z" stroke="#B882FE" stroke-width="2"/>
<path d="M21.1845 542.744V555.494H6.48769V542.744V541.744H5.48769H2.18832H1.18832V542.744V575.52V576.52H2.18832H5.48769H6.48769V575.52V560.712H21.1845V575.52V576.52H22.1845H25.4539H26.4539V575.52V542.744V541.744H25.4539H22.1845H21.1845V542.744Z" fill="#B882FE" stroke="#B882FE" stroke-width="2"/>
<path d="M113.767 562.078L113.767 562.099L113.768 562.121C113.834 563.745 113.724 565.372 113.439 566.972C113.18 567.963 112.751 568.9 112.17 569.744C111.333 570.671 110.204 571.286 108.969 571.485L108.898 571.497L108.829 571.518C107.546 571.92 106.185 572.008 104.861 571.777L104.778 571.763L104.694 571.762C103.552 571.756 102.426 571.491 101.402 570.986L101.377 570.974L101.352 570.963C100.44 570.574 99.6464 569.95 99.053 569.156C98.5213 568.323 98.1933 567.377 98.0959 566.394C97.9701 564.971 97.9313 563.541 97.9796 562.114L97.9802 562.097V562.08V542.334V541.334H96.9802H93.7108H92.7108V542.334V562.058C92.6081 564.465 92.8248 566.875 93.3553 569.225L93.3635 569.262L93.3744 569.297C94.0718 571.58 95.5528 573.543 97.5563 574.841L97.5584 574.842C99.7468 576.252 102.31 576.969 104.912 576.9C109.143 576.899 112.384 576.239 114.379 574.7C116.144 573.402 117.466 571.59 118.164 569.513L118.173 569.488L118.18 569.462C118.847 567.055 119.149 564.562 119.076 562.065V542.334V541.334H118.076H114.807H113.809L113.807 542.332L113.767 562.078Z" fill="#B882FE" stroke="#B882FE" stroke-width="2"/>
<path d="M211.108 541.744H210.485L210.211 542.303L197.926 567.354L185.489 542.299L185.214 541.744H184.593H184.064H183.196L183.074 542.603L178.414 575.38L178.252 576.52H179.404H182.564H183.438L183.555 575.654L186.299 555.279L196.596 575.966L196.872 576.52H197.491H198.331H198.952L199.227 575.963L209.369 555.437L212.127 575.656L212.245 576.52H213.118H216.377H217.532L217.367 575.377L212.628 542.601L212.504 541.744H211.638H211.108Z" fill="#B882FE" stroke="#B882FE" stroke-width="2"/>
<path d="M289.633 541.744H289L288.729 542.316L273.222 575.093L272.547 576.52H274.126H277.796H278.427L278.699 575.95L283.576 565.708H296.471L301.348 575.95L301.62 576.52H302.251H305.75H307.32L306.657 575.098L291.369 542.321L291.1 541.744H290.463H289.633ZM294.029 560.57H285.948L290.017 552.019L294.029 560.57Z" fill="#B882FE" stroke="#B882FE" stroke-width="2"/>
<path d="M373.488 575.52V553.41L393.309 576.177L393.608 576.52H394.063H394.823H395.823V575.52V542.744V541.744H394.823H391.594H390.594V542.744V565.151L370.543 542.088L370.244 541.744H369.788H369.078H368.078V542.744V575.52V576.52H369.078H372.488H373.488V575.52Z" fill="#B882FE" stroke="#B882FE" stroke-width="2"/>
<path d="M512.261 559.682L512.26 559.682L512.261 559.682ZM511.261 559.688L511.261 559.689C511.278 561.949 511.759 564.18 512.674 566.246C513.587 568.305 514.911 570.155 516.565 571.683C518.262 573.399 520.29 574.752 522.527 575.659C524.764 576.567 527.163 577.009 529.577 576.96C534.337 577.067 538.951 575.316 542.442 572.079C544.182 570.491 545.558 568.547 546.476 566.379C547.392 564.217 547.831 561.884 547.765 559.538C547.815 557.134 547.372 554.746 546.464 552.519C545.553 550.287 544.193 548.265 542.468 546.579C540.746 544.857 538.691 543.502 536.429 542.597C534.17 541.693 531.751 541.257 529.318 541.314C526.14 541.299 523.015 542.135 520.269 543.736C517.495 545.323 515.211 547.642 513.668 550.44C512.071 553.26 511.241 556.448 511.261 559.688ZM516.72 559.719L516.72 559.694L516.72 559.668C516.69 557.347 517.269 555.058 518.4 553.029C519.526 551.071 521.146 549.441 523.098 548.303C525.052 547.164 527.27 546.557 529.531 546.542C531.812 546.541 534.052 547.146 536.023 548.294L536.032 548.3L536.041 548.304C538.002 549.394 539.635 550.99 540.768 552.925C541.894 554.919 542.473 557.175 542.445 559.465C542.399 561.539 541.807 563.564 540.731 565.338L541.585 565.857L540.715 565.365C539.609 567.322 537.988 568.939 536.028 570.041C533.568 571.414 530.744 571.993 527.942 571.698C525.142 571.403 522.502 570.25 520.384 568.397C519.176 567.307 518.222 565.966 517.589 564.468C516.955 562.968 516.658 561.347 516.72 559.719Z" fill="#B882FE" stroke="#B882FE" stroke-width="2"/>
<path d="M613.022 575.52V553.409L632.854 576.177L633.153 576.52H633.608H634.358H635.358V575.52V542.744V541.744H634.358H631.128H630.128V542.744V565.15L610.087 542.088L609.788 541.744H609.332H608.622H607.622V542.744V575.52V576.52H608.622H612.022H613.022V575.52Z" fill="#B882FE" stroke="#B882FE" stroke-width="2"/>
<path d="M708.393 548.268L708.393 548.268L708.404 548.262C710.47 547.098 712.804 546.495 715.175 546.512L715.184 546.512L715.192 546.512C717.316 546.49 719.418 546.945 721.342 547.844C723.214 548.747 724.843 550.086 726.09 551.748L726.687 552.544L727.486 551.95L730.096 550.012L730.884 549.426L730.312 548.627C728.649 546.304 726.429 544.435 723.855 543.192L723.854 543.192C721.134 541.882 718.147 541.223 715.129 541.264C712.672 541.196 710.227 541.622 707.937 542.516C705.641 543.413 703.549 544.763 701.786 546.485L701.786 546.485C698.53 549.666 696.617 553.972 696.44 558.519C696.263 563.066 697.834 567.508 700.832 570.933L700.833 570.933C704.38 574.982 709.2 576.981 715.174 576.99C718.14 577.034 721.079 576.424 723.782 575.203L723.785 575.201C726.33 574.043 728.559 572.291 730.286 570.092L730.911 569.296L730.107 568.681L727.498 566.682L726.726 566.091L726.113 566.846C724.82 568.441 723.182 569.722 721.322 570.593C719.463 571.463 717.429 571.901 715.376 571.872L715.351 571.872L715.326 571.873C711.786 572 708.33 570.782 705.654 568.463C704.41 567.356 703.427 565.988 702.774 564.456C702.119 562.923 701.812 561.264 701.874 559.599L701.875 559.573L701.875 559.548C701.843 557.225 702.435 554.936 703.589 552.919C704.741 550.963 706.401 549.356 708.393 548.268Z" fill="#B882FE" stroke="#B882FE" stroke-width="2"/>
<path d="M787.178 559.688L787.178 559.689C787.195 561.949 787.676 564.18 788.592 566.246C789.504 568.305 790.828 570.155 792.482 571.683C794.178 573.4 796.207 574.753 798.444 575.661C800.681 576.568 803.08 577.01 805.494 576.96C810.251 577.068 814.863 575.317 818.35 572.079C820.09 570.492 821.467 568.548 822.385 566.379C823.301 564.218 823.74 561.884 823.672 559.538C823.722 557.134 823.28 554.746 822.371 552.519C821.46 550.287 820.1 548.265 818.376 546.579C816.654 544.858 814.601 543.504 812.341 542.599C810.084 541.695 807.667 541.258 805.236 541.314C802.057 541.298 798.932 542.134 796.186 543.736C793.412 545.323 791.128 547.642 789.585 550.44C787.988 553.26 787.159 556.448 787.178 559.688ZM817.503 565.857L816.632 565.365C815.526 567.322 813.905 568.94 811.945 570.041C809.485 571.414 806.661 571.993 803.859 571.698C801.059 571.403 798.419 570.25 796.301 568.398C795.094 567.307 794.141 565.966 793.508 564.468C792.873 562.967 792.576 561.346 792.637 559.719L792.638 559.694L792.637 559.67C792.61 557.347 793.192 555.058 794.327 553.03C795.453 551.071 797.073 549.441 799.026 548.303C800.979 547.164 803.197 546.557 805.458 546.542C807.739 546.542 809.979 547.147 811.95 548.294L811.959 548.3L811.968 548.304C813.929 549.394 815.562 550.99 816.696 552.925C817.821 554.919 818.4 557.175 818.372 559.464C818.323 561.539 817.729 563.564 816.649 565.337L817.503 565.857Z" fill="#B882FE" stroke="#B882FE" stroke-width="2"/>
<path d="M893.748 542.744V541.744H892.748H889.459H888.459V542.744V575.52V576.52H889.459H905.356H906.356V575.52V572.363V571.363H905.356H893.748V542.744Z" fill="#B882FE" stroke="#B882FE" stroke-width="2"/>
<path d="M971.123 559.687L971.123 559.689C971.14 561.949 971.621 564.18 972.537 566.246C973.449 568.305 974.773 570.155 976.427 571.683C978.123 573.4 980.151 574.753 982.388 575.661C984.626 576.568 987.025 577.01 989.439 576.96C994.196 577.068 998.808 575.317 1002.29 572.079C1004.03 570.492 1005.41 568.548 1006.33 566.379C1007.25 564.218 1007.68 561.884 1007.62 559.538C1007.67 557.134 1007.22 554.746 1006.32 552.519C1005.41 550.287 1004.05 548.265 1002.32 546.579C1000.6 544.858 998.546 543.504 996.286 542.599C994.029 541.695 991.612 541.258 989.181 541.314C986.002 541.298 982.876 542.134 980.131 543.737C977.356 545.325 975.069 547.644 973.52 550.44C971.931 553.262 971.105 556.449 971.123 559.687ZM1001.44 565.857L1000.57 565.368C999.466 567.325 997.849 568.942 995.89 570.041C993.431 571.414 990.606 571.993 987.804 571.698C985.004 571.403 982.364 570.25 980.246 568.398C979.039 567.307 978.086 565.966 977.452 564.468C976.818 562.967 976.521 561.346 976.582 559.719L976.583 559.694L976.582 559.67C976.555 557.347 977.137 555.057 978.272 553.03C979.396 551.069 981.015 549.438 982.968 548.299C984.922 547.16 987.141 546.554 989.402 546.542C991.684 546.542 993.924 547.147 995.895 548.294L995.904 548.3L995.913 548.305C997.874 549.392 999.504 550.989 1000.63 552.925C1001.76 554.917 1002.34 557.174 1002.32 559.464C1002.27 561.539 1001.67 563.565 1000.59 565.334L1001.44 565.857Z" fill="#B882FE" stroke="#B882FE" stroke-width="2"/>
<path d="M1083.71 562.616L1083.71 563.619H1084.71H1093.97C1093.43 565.823 1092.17 567.797 1090.38 569.221L1090.38 569.222C1088.14 571.005 1085.34 571.938 1082.48 571.853L1082.46 571.852L1082.44 571.852C1079.94 571.875 1077.47 571.266 1075.27 570.082L1075.27 570.082L1075.26 570.079C1073.14 568.964 1071.38 567.288 1070.15 565.235L1070.15 565.235L1070.15 565.224C1068.95 563.279 1068.31 561.046 1068.29 558.765C1068.36 556.768 1068.97 554.827 1070.06 553.152L1070.07 553.136L1070.08 553.121C1071.29 551.107 1073.02 549.462 1075.1 548.364L1075.11 548.359L1075.12 548.354C1077.21 547.189 1079.56 546.579 1081.96 546.582C1084.02 546.605 1086.05 547.048 1087.94 547.885L1087.94 547.885L1087.94 547.888C1090.07 548.81 1092 550.125 1093.63 551.764L1094.32 552.453L1095.03 551.785L1097.58 549.376L1098.33 548.661L1097.59 547.934C1095.42 545.816 1092.88 544.112 1090.1 542.905L1090.09 542.901L1090.08 542.898C1087.48 541.831 1084.69 541.29 1081.88 541.304C1078.48 541.251 1075.13 542.077 1072.15 543.703C1069.4 545.187 1067.06 547.341 1065.37 549.965L1065.37 549.965L1065.36 549.972C1063.68 552.617 1062.82 555.696 1062.88 558.827C1062.84 563.109 1064.38 567.254 1067.21 570.47C1070.96 574.839 1076.04 577 1082.33 577C1087.56 577 1091.83 575.445 1095.04 572.251C1098.24 569.056 1099.81 564.758 1099.83 559.476L1099.83 558.472H1098.83H1084.72H1083.72L1083.72 559.469L1083.71 562.616Z" fill="#B882FE" stroke="#B882FE" stroke-width="2"/>
<path d="M1173.41 553.639L1165.88 541.536L1165.58 541.064H1165.03H1161.23H1159.43L1160.38 542.591L1170.82 559.457V574.841V575.841H1171.82H1175.04H1176.04V574.841V559.452L1186.28 542.583L1187.2 541.064H1185.42H1181.64H1181.08L1180.79 541.543L1173.41 553.639Z" fill="#B882FE" stroke="#B882FE" stroke-width="2"/>
<path d="M706.564 464.279V265.031C706.564 264.167 706.22 263.338 705.609 262.727C704.998 262.117 704.169 261.773 703.304 261.773H689.567C688.703 261.773 687.874 262.117 687.262 262.727C686.651 263.338 686.308 264.167 686.308 265.031V410.538C686.308 411.201 686.105 411.849 685.727 412.395C685.348 412.94 684.812 413.357 684.19 413.59C683.568 413.822 682.89 413.859 682.247 413.696C681.603 413.533 681.024 413.177 680.589 412.676C680.589 412.676 612.882 279.121 551.653 271.227C547.212 270.69 542.734 270.533 538.266 270.757L538.206 470.145H558.472L558.642 294.18C606.803 315.445 667.921 424.088 667.921 424.088C668.541 424.787 678.589 443.284 689.257 460.342C698.685 475.441 706.564 466.078 706.564 464.279Z" fill="url(#paint0_linear_2_37)"/>
<path d="M812.763 289.803C826.694 281.95 842.441 277.884 858.435 278.012C872.697 277.852 886.811 280.909 899.727 286.955C911.461 292.581 921.774 300.779 929.901 310.938C930.429 311.599 931.192 312.03 932.03 312.142C932.868 312.254 933.718 312.037 934.4 311.538L945.628 303.164C945.974 302.909 946.266 302.589 946.487 302.221C946.708 301.853 946.854 301.445 946.916 301.02C946.978 300.596 946.956 300.163 946.85 299.747C946.743 299.331 946.556 298.94 946.298 298.597C936.705 286.085 924.322 275.984 910.135 269.098C894.638 261.464 877.264 257.65 858.015 257.656C826.274 257.656 799.829 267.982 778.68 288.634C757.531 309.286 746.956 334.602 746.956 364.58C746.956 390.202 755.658 413.142 773.061 433.401C793.877 457.384 822.335 469.376 858.435 469.376C877.311 469.376 894.431 465.815 909.795 458.693C923.799 452.292 936.203 442.857 946.108 431.073C946.387 430.733 946.594 430.341 946.717 429.919C946.84 429.497 946.876 429.054 946.823 428.618C946.77 428.181 946.628 427.76 946.407 427.38C946.187 427 945.891 426.669 945.538 426.406L934.27 417.912C933.614 417.423 932.798 417.198 931.983 417.281C931.168 417.364 930.415 417.75 929.871 418.362C910.875 439.427 887.433 449.956 859.545 449.95C833.35 449.95 811.647 442.288 794.437 426.966C777.227 411.643 768.619 391.458 768.612 366.409C768.612 349.754 772.478 334.791 780.21 321.521C787.981 308.193 799.234 297.229 812.763 289.803V289.803Z" fill="url(#paint1_linear_2_37)"/>
<path d="M1165.63 440.336C1186.54 421.017 1197 396.321 1197 366.249C1197 335.824 1186.52 310.202 1165.56 289.384C1144.59 268.565 1118.57 258.159 1087.48 258.166C1068.63 258.073 1050.09 263.031 1033.8 272.526C1017.35 281.948 1003.8 295.688 994.609 312.257C985.122 329.015 980.192 347.964 980.311 367.218C980.311 393.58 990.816 417.19 1011.83 438.048C1032.83 458.907 1058.61 469.336 1089.14 469.336C1119.21 469.336 1144.71 459.669 1165.63 440.336ZM1039.42 435.9C1038.47 435.3 1037.53 434.68 1036.6 434.041C1035.6 433.361 1034.6 432.662 1033.66 431.932C1031.44 430.274 1029.28 428.498 1027.16 426.606C1025.08 424.739 1023.1 422.768 1021.22 420.7C1019.6 418.912 1018.09 417.073 1016.67 415.174C1016.05 414.342 1015.45 413.502 1014.87 412.656C1013.71 410.957 1012.63 409.212 1011.63 407.42C1009.99 404.507 1008.56 401.486 1007.34 398.376C1003.56 388.429 1001.68 377.859 1001.81 367.218C1001.78 359.04 1002.81 350.891 1004.87 342.976C1005.16 341.886 1005.47 340.797 1005.79 339.708C1006.25 338.199 1006.79 336.71 1007.29 335.221C1007.69 334.112 1008.11 333.013 1008.56 331.923C1009.9 328.636 1011.44 325.435 1013.19 322.34C1014.12 320.675 1015.12 319.049 1016.18 317.464C1017.24 315.878 1018.32 314.339 1019.42 312.847C1021.68 309.869 1024.12 307.042 1026.74 304.383L1026.88 304.233C1030.36 300.766 1034.13 297.603 1038.15 294.78C1039.27 293.99 1040.4 293.221 1041.55 292.472C1042.7 291.722 1043.88 290.983 1045.09 290.283C1048.09 288.549 1051.19 286.991 1054.37 285.616C1055.37 285.157 1056.46 284.727 1057.51 284.307C1058.75 283.828 1059.99 283.368 1061.24 282.938C1064.69 281.761 1068.22 280.81 1071.8 280.09C1072.34 279.98 1072.87 279.87 1073.41 279.781C1074.77 279.531 1076.15 279.321 1077.52 279.141C1081.05 278.678 1084.6 278.441 1088.15 278.431H1088.33C1092.18 278.429 1096.02 278.679 1099.83 279.181C1101.72 279.421 1103.59 279.727 1105.45 280.1C1114.9 282.015 1123.98 285.458 1132.33 290.293C1145.69 297.776 1156.77 308.733 1164.4 322.001C1165.35 323.646 1166.24 325.311 1167.07 326.997C1167.9 328.706 1168.67 330.425 1169.39 332.173C1170.81 335.684 1171.99 339.287 1172.93 342.956C1174.86 350.559 1175.81 358.376 1175.77 366.219C1175.77 371.205 1175.23 376.176 1174.17 381.049C1173.7 383.227 1173.09 385.415 1172.41 387.604C1170.42 393.997 1167.74 400.155 1164.42 405.971C1159.85 414.074 1153.94 421.348 1146.95 427.486C1146.59 427.805 1146.21 428.115 1145.84 428.425C1143.18 430.668 1140.4 432.75 1137.49 434.66C1135.91 435.66 1134.3 436.719 1132.63 437.658C1125.57 441.686 1117.98 444.712 1110.09 446.652C1102.97 448.407 1095.68 449.289 1088.35 449.28C1069.98 449.333 1053.67 444.873 1039.42 435.9Z" fill="url(#paint2_linear_2_37)"/>
<path d="M1077.5 279.141C1081.03 278.678 1084.58 278.441 1088.13 278.431C1084.58 278.441 1081.03 278.678 1077.5 279.141Z" fill="url(#paint3_linear_2_37)"/>
<path d="M1016.16 317.464C1015.14 319.043 1014.14 320.668 1013.17 322.34C1011.42 325.435 1009.88 328.636 1008.54 331.923C1009.88 328.636 1011.42 325.435 1013.17 322.34C1014.13 320.675 1015.13 319.049 1016.16 317.464Z" fill="url(#paint4_linear_2_37)"/>
<path d="M1145.78 428.455C1143.12 430.698 1140.34 432.78 1137.43 434.69C1140.34 432.78 1143.12 430.698 1145.78 428.455V428.455Z" fill="url(#paint5_linear_2_37)"/>
<path d="M405.122 258.366C404.791 258.313 404.457 258.279 404.122 258.266C403.82 258.28 403.52 258.31 403.222 258.356H403.782L405.122 258.366Z" fill="url(#paint6_linear_2_37)"/>
<path d="M499.653 312.627C498.394 310.449 497.044 308.33 495.654 306.222C492.405 301.225 489.715 297.168 484.376 292.142C484.376 292.142 484.316 292.082 484.296 292.062C483.259 291.127 482.284 290.126 481.377 289.064C477.541 285.296 473.442 281.806 469.109 278.621C467.689 277.622 466.24 276.623 464.78 275.623C463.53 274.794 462.25 274.005 460.981 273.235C444.697 263.522 426.094 258.556 405.171 258.336H403.822H403.262C401.165 258.554 399.223 259.535 397.803 261.092C396.383 262.649 395.586 264.673 395.563 266.78C395.563 266.78 395.563 266.83 395.563 266.85C395.559 268.567 396.07 270.245 397.028 271.67C397.987 273.095 399.35 274.2 400.942 274.844C401.942 275.464 403.422 275.573 406.051 275.454C415.513 275.572 424.904 277.098 433.916 279.98C435.276 280.41 436.605 280.89 437.915 281.399L439.915 282.189L442.724 283.398C443.634 283.828 444.564 284.247 445.474 284.697C446.383 285.137 447.293 285.626 448.183 286.086C449.983 287.085 451.722 288.085 453.442 289.184L453.642 289.324C454.642 289.923 455.542 290.553 456.472 291.202L457.121 291.642C457.931 292.232 458.721 292.801 459.501 293.401C459.971 293.751 460.411 294.11 460.861 294.45C461.311 294.79 461.97 295.299 462.5 295.749C462.528 295.782 462.562 295.809 462.6 295.829C462.72 295.929 462.82 296.029 462.92 296.129C469.005 301.221 474.381 307.102 478.907 313.616C478.987 313.736 479.087 313.836 479.147 313.936C488.323 327.253 493.683 342.824 494.647 358.965C495.611 375.106 492.143 391.203 484.617 405.516C477.091 419.83 465.794 431.815 451.947 440.177C438.1 448.538 422.229 452.958 406.051 452.957C404.052 452.957 402.132 452.897 400.212 452.748C399.562 452.748 398.913 452.628 398.293 452.568C396.993 452.468 395.723 452.368 394.443 452.188H394.143C393.394 452.088 392.644 451.958 391.904 451.838C391.164 451.718 390.224 451.558 389.374 451.399C389.242 451.383 389.112 451.356 388.984 451.319C387.435 451.009 385.875 450.669 384.335 450.319L382.676 449.85C381.586 449.57 380.476 449.26 379.406 448.92C378.776 448.72 378.146 448.501 377.547 448.291C376.547 447.951 375.547 447.611 374.547 447.241L372.628 446.482C371.628 446.112 370.738 445.713 369.818 445.283L368.018 444.453C367.019 443.994 366.079 443.504 365.129 443.005C364.609 442.715 364.059 442.455 363.529 442.175C362.4 441.546 361.31 440.896 360.22 440.246C359.87 440.047 359.53 439.867 359.22 439.647C357.8 438.778 356.401 437.848 355.051 436.899C354.711 436.659 354.361 436.389 354.051 436.129C353.051 435.4 352.051 434.67 351.052 433.901C350.562 433.541 350.102 433.142 349.632 432.752C348.822 432.082 348.012 431.403 347.222 430.753C346.723 430.304 346.223 429.864 345.773 429.414C345.023 428.735 344.273 428.025 343.563 427.296C343.083 426.836 342.563 426.366 342.173 425.907C341.444 425.157 340.754 424.388 340.044 423.618C339.624 423.159 339.194 422.689 338.794 422.199C338.044 421.36 337.354 420.491 336.654 419.621C336.304 419.191 335.965 418.772 335.655 418.342C334.655 417.033 333.655 415.694 332.715 414.345C330.378 410.907 328.29 407.307 326.466 403.573L326.266 403.692C326.208 403.542 326.141 403.395 326.066 403.253C326.127 403.195 326.194 403.144 326.266 403.103C325.986 402.523 325.746 401.894 325.457 401.284C325.746 401.084 326.026 400.864 326.286 400.665C348.592 383.377 371.198 364.69 385.735 340.098C391.154 330.934 394.993 320.771 395.333 310.059C395.441 306.757 395.166 303.454 394.513 300.216C393.398 294.974 390.982 290.097 387.488 286.032C383.994 281.967 379.534 278.845 374.517 276.953H374.397L373.727 276.693C368.448 274.785 362.804 274.099 357.221 274.686C351.638 275.273 346.261 277.117 341.493 280.08L341.294 280.21C328.636 289.204 318.738 298.747 310.879 312.697C304.07 324.74 299.605 337.965 297.722 351.669C297.016 356.759 296.649 361.89 296.622 367.029C297.006 376.023 298.191 384.965 300.161 393.75C300.321 394.329 300.531 394.919 300.691 395.508C300.851 396.098 300.971 396.378 301.091 396.817C281.805 409.668 259.929 424.118 239.383 434.65C222.456 443.324 206.469 449.32 193.572 449.59C188.573 449.69 184.244 445.423 183.374 444.114C173.526 429.434 211.618 324.349 218.137 308.59C219.137 306.022 220.077 303.494 220.987 301.005C222.53 296.556 224.312 292.192 226.326 287.935C229.135 281.449 225.326 272.716 221.526 266.95C220.348 264.92 218.662 263.232 216.634 262.05C214.606 260.867 212.306 260.231 209.959 260.204C170.086 260.694 82.553 344.924 49.6093 376.612L45.71 380.369L64.9863 318.493C107.308 187.586 122.855 154.31 188.393 17.2371C191.442 11.0315 187.823 3.83659 182.734 0.708815C179.714 -0.314357 176.428 -0.227413 173.466 0.954021C170.505 2.13546 168.062 4.33391 166.577 7.15424C92.5911 161.165 69.4755 218.904 20.7148 380.889C1.92839 444.164 0.2887 452.298 0.0487459 456.965C-0.561138 464.1 4.65787 468.307 9.76689 469.216C14.8759 470.125 21.1347 467.877 23.0144 460.842L26.6937 447.991C39.1713 416.184 149.97 303.823 197.251 287.775L198.991 287.185L198.281 288.884C189.623 309.26 152.97 429.274 157.169 444.234C160.168 460.982 182.624 469.146 192.822 469.576C201.53 469.086 220.637 466.198 249.051 452.588C265.528 444.703 285.124 433.211 307.63 416.493C308.27 416.014 308.98 415.494 309.71 414.984C309.764 415.067 309.811 415.154 309.85 415.244C314.955 423.635 321.088 431.356 328.106 438.228C346.483 456.475 368.508 466.741 394.183 469.026C397.843 469.356 401.602 469.516 405.431 469.516C435.499 469.516 460.994 459.856 481.917 440.536C502.839 421.217 513.294 396.514 513.281 366.429C513.281 346.403 508.738 328.469 499.653 312.627ZM318.868 381.059C318.788 380.659 318.708 380.249 318.628 379.829C317.767 374.916 317.325 369.938 317.308 364.95C317.31 361.486 317.52 358.026 317.938 354.587C318.058 353.438 318.218 352.279 318.398 351.15C318.258 352.149 318.118 353.148 318.018 354.148L318.438 351.729C318.908 349.481 319.438 347.263 319.998 345.054C321.255 340.37 322.774 335.759 324.547 331.244C324.917 330.315 325.297 329.365 325.677 328.436C325.786 328.196 325.926 327.846 325.966 327.746C326.246 327.157 326.486 326.557 326.776 325.948C327.606 324.129 328.476 322.31 329.426 320.532C330.166 319.123 330.996 317.724 331.825 316.335C331.465 316.894 331.075 317.464 330.716 318.023C331.185 317.224 331.715 316.434 332.215 315.665C335.541 310.667 339.367 306.02 343.633 301.795L344.103 301.375C344.283 301.215 344.483 301.055 344.663 300.885C344.834 300.719 345.018 300.565 345.213 300.426C345.453 300.266 346.593 299.427 346.812 299.257C347.722 298.627 348.652 298.018 349.602 297.478C350.352 297.048 351.102 296.629 351.842 296.239L352.841 295.739C354.619 294.937 356.49 294.36 358.41 294.02C358.65 293.96 359.8 293.761 360.25 293.671C360.25 293.671 361.4 293.601 361.97 293.551C364.221 293.511 366.466 293.79 368.638 294.38C370.34 295.093 371.797 296.288 372.828 297.818C373.637 299.119 374.307 300.503 374.827 301.945C375.107 302.874 375.367 303.823 375.577 304.773C375.657 305.133 375.717 305.502 375.777 305.882C375.777 306.082 375.837 306.412 375.877 306.771C375.994 308.893 375.96 311.02 375.777 313.137C375.777 313.137 375.777 313.277 375.777 313.397C375.717 313.726 375.637 314.226 375.617 314.346C375.367 315.625 375.087 316.854 374.727 318.083C374.227 319.897 373.62 321.679 372.908 323.419C372.758 323.649 371.908 325.418 371.828 325.688C371.288 326.757 370.738 327.826 370.158 328.876C367.904 332.786 365.451 336.578 362.809 340.238L360.3 343.695L359 345.274C355.479 349.457 351.748 353.459 347.822 357.265C338.689 366.092 329.112 374.447 319.128 382.298C319.048 381.888 318.938 381.488 318.868 381.059Z" fill="url(#paint7_linear_2_37)"/>
<defs>
<linearGradient id="paint0_linear_2_37" x1="-9.38944" y1="365.979" x2="706.564" y2="365.979" gradientUnits="userSpaceOnUse">
<stop stop-color="#B882FE"/>
<stop offset="0.37" stop-color="#A07CF9"/>
<stop offset="0.67" stop-color="#8976F4"/>
<stop offset="1" stop-color="#818EFF"/>
</linearGradient>
<linearGradient id="paint1_linear_2_37" x1="746.956" y1="363.471" x2="946.948" y2="363.471" gradientUnits="userSpaceOnUse">
<stop stop-color="#818EFF"/>
<stop offset="1" stop-color="#7BA9F6"/>
</linearGradient>
<linearGradient id="paint2_linear_2_37" x1="980.311" y1="363.751" x2="1197" y2="363.751" gradientUnits="userSpaceOnUse">
<stop stop-color="#7BA9F6"/>
<stop offset="0.29" stop-color="#7CAEF7"/>
<stop offset="0.65" stop-color="#80BEFA"/>
<stop offset="1" stop-color="#85D4FF"/>
</linearGradient>
<linearGradient id="paint3_linear_2_37" x1="11700.2" y1="482.561" x2="14003.6" y2="482.561" gradientUnits="userSpaceOnUse">
<stop stop-color="#7BA9F6"/>
<stop offset="0.29" stop-color="#7CAEF7"/>
<stop offset="0.65" stop-color="#80BEFA"/>
<stop offset="1" stop-color="#85D4FF"/>
</linearGradient>
<linearGradient id="paint4_linear_2_37" x1="8633.27" y1="5138.91" x2="10286.6" y2="5138.91" gradientUnits="userSpaceOnUse">
<stop stop-color="#7BA9F6"/>
<stop offset="0.29" stop-color="#7CAEF7"/>
<stop offset="0.65" stop-color="#80BEFA"/>
<stop offset="1" stop-color="#85D4FF"/>
</linearGradient>
<linearGradient id="paint5_linear_2_37" x1="9481.64" y1="3174.6" x2="11291" y2="3174.6" gradientUnits="userSpaceOnUse">
<stop stop-color="#7BA9F6"/>
<stop offset="0.29" stop-color="#7CAEF7"/>
<stop offset="0.65" stop-color="#80BEFA"/>
<stop offset="1" stop-color="#85D4FF"/>
</linearGradient>
<linearGradient id="paint6_linear_2_37" x1="1190.93" y1="284.969" x2="1223.65" y2="284.969" gradientUnits="userSpaceOnUse">
<stop stop-color="#B882FE"/>
<stop offset="0.37" stop-color="#A07CF9"/>
<stop offset="0.67" stop-color="#8976F4"/>
<stop offset="1" stop-color="#818EFF"/>
</linearGradient>
<linearGradient id="paint7_linear_2_37" x1="9752.33" y1="114318" x2="273260" y2="114318" gradientUnits="userSpaceOnUse">
<stop stop-color="#B882FE"/>
<stop offset="0.37" stop-color="#A07CF9"/>
<stop offset="0.67" stop-color="#8976F4"/>
<stop offset="1" stop-color="#818EFF"/>
</linearGradient>
</defs>
</svg>
