<svg width="1197" height="576" viewBox="0 0 1197 576" fill="none" xmlns="http://www.w3.org/2000/svg">
<path d="M38.916 535.474V547.825H24.7349V535.474V534.474H23.7349H20.5334H19.5334V535.474V567.31V568.31H20.5334H23.7349H24.7349V567.31V552.964H38.916V567.31V568.31H39.916H43.0884H44.0884V567.31V535.474V534.474H43.0884H39.916H38.916V535.474Z" fill="white" stroke="white" stroke-width="2"/>
<path d="M128.652 554.289V554.31L128.653 554.331C128.72 555.906 128.611 557.483 128.327 559.033C128.077 559.991 127.663 560.897 127.104 561.712C126.302 562.607 125.218 563.199 124.031 563.386L123.958 563.398L123.886 563.421C122.646 563.812 121.33 563.898 120.049 563.671L119.966 563.656L119.881 563.655C118.78 563.648 117.694 563.394 116.703 562.913L116.683 562.903L116.662 562.894C115.781 562.515 115.015 561.91 114.44 561.141C113.927 560.335 113.611 559.419 113.519 558.467C113.389 557.087 113.342 555.7 113.378 554.314L113.378 554.302V554.289V535.068V534.068H112.378H109.206H108.206V535.068V554.266C108.102 556.606 108.312 558.95 108.83 561.234L108.838 561.269L108.849 561.304C109.526 563.523 110.963 565.433 112.907 566.695L112.908 566.696C115.035 568.074 117.529 568.775 120.062 568.707C124.163 568.705 127.313 568.066 129.258 566.568C130.976 565.305 132.26 563.538 132.932 561.511L132.94 561.488L132.947 561.465C133.597 559.129 133.893 556.708 133.825 554.284V535.068V534.068H132.825H129.652H128.652V535.068V554.289Z" fill="white" stroke="white" stroke-width="2"/>
<path d="M223.025 534.474H222.401L222.127 535.035L210.253 559.31L198.223 535.031L197.948 534.474H197.327H196.814H195.947L195.824 535.334L191.298 567.169L191.136 568.31H192.288H195.364H196.238L196.355 567.443L199.005 547.748L208.927 567.754L209.203 568.31H209.823H210.636H211.257L211.532 567.752L221.325 547.906L223.988 567.445L224.106 568.31H224.979H228.132H229.287L229.122 567.167L224.537 535.332L224.414 534.474H223.548H223.025Z" fill="white" stroke="white" stroke-width="2"/>
<path d="M299.134 534.474H298.5L298.23 535.048L283.199 566.883L282.526 568.31H284.104H287.663H288.297L288.568 567.736L293.249 557.808H305.698L310.427 567.74L310.699 568.31H311.33H314.716H316.284L315.622 566.888L300.814 535.053L300.545 534.474H299.908H299.134ZM303.347 552.766H295.61L299.513 544.554L303.347 552.766Z" fill="white" stroke="white" stroke-width="2"/>
<path d="M380.44 567.31V545.919L399.606 567.966L399.905 568.31H400.361H401.086H402.086V567.31V535.474V534.474H401.086H397.952H396.952V535.474V557.161L377.575 534.819L377.276 534.474H376.819H376.132H375.132V535.474V567.31V568.31H376.132H379.44H380.44V567.31Z" fill="white" stroke="white" stroke-width="2"/>
<path d="M513.915 551.931L513.915 551.932C513.93 554.129 514.395 556.3 515.282 558.31C516.166 560.313 517.45 562.113 519.055 563.601C520.702 565.27 522.671 566.585 524.843 567.467C527.014 568.348 529.341 568.777 531.683 568.727C536.329 568.85 540.838 567.145 544.242 563.975C545.928 562.429 547.262 560.537 548.152 558.428C549.039 556.326 549.465 554.057 549.4 551.776C549.451 549.439 549.024 547.116 548.143 544.951C547.261 542.779 545.941 540.812 544.267 539.172C542.589 537.488 540.585 536.164 538.378 535.283C536.174 534.403 533.814 533.983 531.442 534.048C528.358 534.036 525.326 534.852 522.664 536.411C519.968 537.959 517.749 540.217 516.247 542.941C514.699 545.682 513.895 548.782 513.915 551.931ZM542.473 557.409L542.466 557.421L542.459 557.433C541.395 559.329 539.831 560.896 537.938 561.962C535.56 563.289 532.83 563.849 530.122 563.564C527.416 563.278 524.863 562.163 522.813 560.37C521.638 559.317 520.709 558.019 520.09 556.566C519.471 555.112 519.178 553.539 519.232 551.959L519.233 551.936L519.232 551.913C519.206 549.66 519.768 547.438 520.864 545.47C521.949 543.575 523.512 541.998 525.395 540.897C527.28 539.796 529.42 539.21 531.602 539.197C533.803 539.197 535.964 539.782 537.865 540.892L537.872 540.896L537.879 540.9C539.784 541.97 541.364 543.537 542.453 545.435C543.545 547.366 544.108 549.554 544.082 551.774C544.046 553.761 543.491 555.704 542.473 557.409Z" fill="white" stroke="white" stroke-width="2"/>
<path d="M612.605 567.31V545.919L631.771 567.966L632.07 568.31H632.526H633.261H634.261V567.31V535.474V534.474H633.261H630.127H629.127V535.474V557.161L609.75 534.819L609.451 534.474H608.994H608.307H607.307V535.474V567.31V568.31H608.307H611.605H612.605V567.31Z" fill="white" stroke="white" stroke-width="2"/>
<path d="M705.024 540.866L705.024 540.866L705.035 540.86C707.033 539.73 709.292 539.147 711.585 539.168L711.596 539.168L711.607 539.168C713.659 539.142 715.69 539.583 717.548 540.456C719.36 541.328 720.934 542.626 722.138 544.239L722.737 545.042L723.538 544.442L726.063 542.553L726.846 541.967L726.277 541.171C724.663 538.915 722.513 537.097 720.021 535.883L720.017 535.881C717.374 534.61 714.474 533.969 711.543 534.009C709.158 533.943 706.783 534.357 704.56 535.225C702.33 536.096 700.298 537.407 698.583 539.08L698.583 539.08L698.581 539.082C695.425 542.181 693.572 546.37 693.401 550.793C693.229 555.215 694.751 559.536 697.657 562.871C701.096 566.818 705.779 568.766 711.586 568.775C714.465 568.815 717.317 568.219 719.938 567.029L719.942 567.027C722.409 565.895 724.571 564.191 726.25 562.057L726.875 561.262L726.073 560.645L723.548 558.708L722.776 558.115L722.162 558.871C720.911 560.415 719.327 561.654 717.529 562.496C715.732 563.338 713.767 563.761 711.782 563.733L711.757 563.732L711.732 563.733C708.311 563.857 704.969 562.679 702.379 560.436C701.176 559.363 700.225 558.038 699.593 556.554C698.96 555.068 698.663 553.461 698.724 551.846L698.725 551.82L698.724 551.794C698.69 549.541 699.262 547.32 700.378 545.365C701.496 543.475 703.101 541.921 705.024 540.866Z" fill="white" stroke="white" stroke-width="2"/>
<path d="M790.112 536.411C787.417 537.958 785.198 540.217 783.696 542.94C782.14 545.679 781.333 548.781 781.354 551.932L781.354 551.933C781.371 554.13 781.838 556.3 782.725 558.309C783.608 560.311 784.891 562.112 786.494 563.601C788.143 565.269 790.115 566.584 792.288 567.465C794.461 568.347 796.79 568.776 799.134 568.727C803.756 568.832 808.236 567.127 811.623 563.975C813.31 562.429 814.643 560.537 815.533 558.428C816.42 556.326 816.846 554.057 816.781 551.776C816.83 549.439 816.402 547.117 815.522 544.952C814.639 542.78 813.321 540.813 811.649 539.173C809.979 537.497 807.987 536.178 805.792 535.298C803.601 534.418 801.254 533.993 798.893 534.048C795.808 534.036 792.776 534.852 790.112 536.411ZM809.907 557.401L809.266 558.453C808.251 559.895 806.925 561.095 805.379 561.961C803 563.289 800.27 563.849 797.561 563.564C794.856 563.279 792.304 562.164 790.254 560.372C789.09 559.315 788.17 558.015 787.559 556.564C786.947 555.11 786.661 553.539 786.719 551.962L786.72 551.938L786.72 551.913C786.693 549.66 787.256 547.439 788.351 545.47C789.436 543.575 790.999 541.998 792.883 540.897C794.768 539.796 796.908 539.21 799.089 539.197C801.29 539.197 803.451 539.782 805.353 540.892L805.36 540.896L805.367 540.9C807.272 541.97 808.852 543.537 809.94 545.435C811.032 547.365 811.594 549.551 811.569 551.77C811.516 553.761 810.943 555.702 809.907 557.401Z" fill="white" stroke="white" stroke-width="2"/>
<path d="M884.697 535.474V534.474H883.697H880.505H879.505V535.474V567.31V568.31H880.505H895.913H896.913V567.31V564.239V563.239H895.913H884.697V535.474Z" fill="white" stroke="white" stroke-width="2"/>
<path d="M961.959 542.941C960.411 545.682 959.607 548.782 959.627 551.931L959.627 551.932C959.642 554.129 960.108 556.3 960.995 558.31C961.879 560.313 963.162 562.114 964.767 563.601C966.414 565.269 968.384 566.584 970.555 567.466C972.727 568.347 975.055 568.776 977.398 568.727C982.019 568.832 986.5 567.128 989.886 563.975C991.573 562.429 992.907 560.537 993.797 558.428C994.684 556.326 995.109 554.057 995.044 551.776C995.096 549.439 994.668 547.116 993.788 544.951C992.905 542.779 991.586 540.812 989.912 539.173C988.242 537.497 986.25 536.178 984.056 535.298C981.864 534.418 979.517 533.993 977.157 534.048C974.071 534.036 971.039 534.852 968.376 536.411C965.68 537.959 963.461 540.217 961.959 542.941ZM988.185 557.409L988.178 557.421L988.171 557.433C987.107 559.329 985.543 560.896 983.651 561.962C981.272 563.289 978.542 563.849 975.835 563.564C973.128 563.278 970.575 562.163 968.525 560.37C967.351 559.317 966.421 558.019 965.802 556.566C965.183 555.112 964.89 553.54 964.944 551.959L964.945 551.936L964.945 551.913C964.918 549.66 965.481 547.439 966.576 545.47C967.661 543.575 969.224 541.998 971.108 540.897C972.992 539.796 975.133 539.21 977.314 539.197C979.515 539.197 981.676 539.782 983.578 540.892L983.585 540.896L983.592 540.9C985.496 541.97 987.077 543.537 988.165 545.435C989.258 547.366 989.82 549.554 989.794 551.774C989.758 553.761 989.203 555.704 988.185 557.409Z" fill="white" stroke="white" stroke-width="2"/>
<path d="M1079.71 564.189C1082.84 561.058 1084.33 556.909 1084.35 551.764L1084.36 550.76H1083.35H1069.72H1068.72V551.76V554.783V555.783H1069.72H1078.65C1078.12 557.901 1076.91 559.798 1075.19 561.17L1075.19 561.171C1073.03 562.899 1070.32 563.804 1067.56 563.723L1067.54 563.723L1067.52 563.723C1065.1 563.747 1062.71 563.155 1060.58 562.003L1060.58 562.003L1060.57 561.998C1058.52 560.919 1056.82 559.295 1055.63 557.305L1055.63 557.298L1055.63 557.292C1054.47 555.413 1053.85 553.253 1053.84 551.047C1053.91 549.113 1054.49 547.233 1055.54 545.606L1055.55 545.593L1055.55 545.58C1056.72 543.627 1058.4 542.029 1060.41 540.959L1060.42 540.955L1060.42 540.95C1062.45 539.826 1064.73 539.235 1067.04 539.236C1069.03 539.258 1071 539.687 1072.82 540.496L1072.83 540.498C1074.88 541.399 1076.74 542.675 1078.32 544.261L1079.01 544.95L1079.72 544.281L1082.19 541.946L1082.94 541.232L1082.2 540.506C1080.1 538.443 1077.63 536.784 1074.93 535.613L1074.92 535.609L1074.91 535.606C1072.39 534.565 1069.68 534.039 1066.95 534.058C1063.65 534.007 1060.4 534.809 1057.51 536.388C1054.83 537.829 1052.57 539.925 1050.92 542.479L1050.92 542.479L1050.91 542.488C1049.29 545.061 1048.45 548.052 1048.49 551.095C1048.45 555.273 1049.95 559.319 1052.7 562.462C1056.35 566.717 1061.29 568.823 1067.4 568.823C1072.46 568.823 1076.61 567.306 1079.71 564.189ZM1079.71 564.189C1079.71 564.189 1079.71 564.189 1079.71 564.189L1079 563.483L1079.71 564.189C1079.71 564.189 1079.71 564.189 1079.71 564.189Z" fill="white" stroke="white" stroke-width="2"/>
<path d="M1155.71 545.995L1148.45 534.279L1148.15 533.806H1147.6H1143.91H1142.12L1143.06 535.332L1153.18 551.715V566.651V567.651H1154.18H1157.31H1158.31V566.651V551.71L1168.22 535.324L1169.14 533.806H1167.37H1163.7H1163.14L1162.85 534.286L1155.71 545.995Z" fill="white" stroke="white" stroke-width="2"/>
<path d="M1040.32 285.704C1037.24 287.039 1034.24 288.557 1031.33 290.248C1030.16 290.926 1029.02 291.633 1027.9 292.36C1029.02 291.633 1030.16 290.926 1031.33 290.248C1034.24 288.557 1037.24 287.039 1040.32 285.704Z" fill="white"/>
<path d="M1073.24 444.754C1055.44 444.754 1039.64 440.398 1025.85 431.685C1039.64 440.404 1055.44 444.761 1073.24 444.754C1080.34 444.769 1087.41 443.913 1094.3 442.206C1087.41 443.913 1080.34 444.769 1073.24 444.754Z" fill="white"/>
<path d="M992.341 341.43C990.345 349.117 989.35 357.03 989.382 364.973C989.257 375.323 991.081 385.604 994.759 395.277C991.099 385.613 989.288 375.346 989.421 365.011C989.373 357.058 990.355 349.131 992.341 341.43Z" fill="white"/>
<path d="M1094.3 442.207C1101.96 440.315 1109.32 437.364 1116.16 433.439C1117.79 432.47 1119.34 431.501 1120.87 430.532C1119.34 431.501 1117.79 432.528 1116.16 433.439C1109.32 437.364 1101.96 440.315 1094.3 442.207Z" fill="white"/>
<path d="M1130.03 423.547C1136.81 417.582 1142.54 410.514 1146.97 402.64C1150.19 396.994 1152.78 391.013 1154.7 384.804C1152.78 391.013 1150.19 396.994 1146.97 402.64C1142.54 410.514 1136.81 417.582 1130.03 423.547Z" fill="white"/>
<path d="M1146.97 321.037C1147.89 322.645 1148.75 324.276 1149.56 325.929C1148.75 324.269 1147.88 322.638 1146.97 321.037C1139.58 308.15 1128.84 297.51 1115.89 290.248C1128.84 297.51 1139.58 308.15 1146.97 321.037Z" fill="white"/>
<path d="M703.237 459.219V265.708C703.237 264.87 702.905 264.067 702.314 263.474C701.723 262.882 700.921 262.549 700.084 262.549H686.756C685.92 262.549 685.118 262.882 684.527 263.474C683.936 264.067 683.603 264.87 683.603 265.708V407.058C683.601 407.701 683.402 408.328 683.035 408.856C682.668 409.384 682.149 409.787 681.547 410.012C680.946 410.237 680.29 410.273 679.667 410.116C679.045 409.958 678.484 409.615 678.061 409.131C678.061 409.131 612.437 279.397 553.09 271.734C548.788 271.213 544.448 271.061 540.12 271.278L540.062 465.032H559.706L559.86 294.104C606.547 314.759 665.788 420.292 665.788 420.292C666.387 420.97 676.127 438.932 686.466 455.508C695.597 470.099 703.237 461.002 703.237 459.219Z" fill="white"/>
<path d="M806.166 289.773C819.671 282.148 834.933 278.2 850.435 278.322C864.261 278.175 877.941 281.155 890.457 287.041C901.827 292.491 911.824 300.439 919.705 310.292C920.216 310.936 920.956 311.355 921.769 311.464C922.583 311.572 923.406 311.361 924.067 310.874L934.948 302.745C935.283 302.498 935.566 302.186 935.78 301.829C935.993 301.471 936.135 301.074 936.195 300.662C936.255 300.249 936.233 299.829 936.131 299.425C936.028 299.021 935.846 298.642 935.596 298.308C926.308 286.141 914.308 276.317 900.555 269.622C885.525 262.207 868.682 258.503 850.029 258.509C819.259 258.509 793.628 268.52 773.137 288.543C752.645 308.565 742.396 333.182 742.389 362.395C742.389 387.288 750.82 409.57 767.682 429.244C787.87 452.495 815.455 464.121 850.435 464.121C868.734 464.121 885.328 460.662 900.216 453.745C913.786 447.522 925.807 438.359 935.413 426.919C935.683 426.588 935.884 426.205 936.003 425.795C936.122 425.384 936.157 424.953 936.105 424.529C936.054 424.104 935.917 423.694 935.703 423.324C935.489 422.954 935.203 422.631 934.861 422.375L923.942 414.13C923.306 413.653 922.514 413.433 921.724 413.514C920.934 413.594 920.203 413.97 919.676 414.566C901.261 435.028 878.538 445.255 851.508 445.249C826.123 445.249 805.089 437.821 788.409 422.966C771.728 408.111 763.384 388.502 763.378 364.139C763.378 347.992 767.124 333.46 774.616 320.543C782.155 307.612 793.06 296.976 806.166 289.773Z" fill="white"/>
<path d="M1148.19 435.967C1168.45 417.192 1178.58 393.204 1178.58 364.004C1178.58 334.448 1168.43 309.559 1148.12 289.337C1127.81 269.115 1102.58 259.007 1072.44 259.013C1054.14 258.915 1036.16 263.732 1020.36 272.964C1004.43 282.129 991.313 295.483 982.418 311.581C973.224 327.85 968.446 346.249 968.558 364.943C968.558 390.546 978.74 413.475 999.102 433.729C1019.47 453.984 1044.45 464.115 1074.05 464.121C1103.2 464.153 1127.91 454.769 1148.19 435.967ZM1025.85 431.656C1024.93 431.075 1024.02 430.474 1023.13 429.854C1022.16 429.195 1021.19 428.517 1020.23 427.81C1018.08 426.195 1015.98 424.468 1013.93 422.627C1011.92 420.813 1010 418.899 1008.17 416.891C1006.61 415.157 1005.15 413.365 1003.77 411.524C1003.17 410.723 1002.59 409.909 1002.03 409.083C1000.9 407.426 999.857 405.731 998.88 403.996C997.29 401.168 995.901 398.232 994.721 395.209C991.061 385.546 989.25 375.278 989.382 364.943C989.35 357.001 990.345 349.088 992.342 341.401C992.622 340.336 992.922 339.279 993.241 338.223C993.686 336.761 994.208 335.317 994.682 333.864C995.079 332.788 995.485 331.723 995.92 330.657C997.22 327.462 998.719 324.353 1000.41 321.347C1001.32 319.732 1002.28 318.156 1003.31 316.619C1004.28 315.078 1005.36 313.586 1006.44 312.133C1008.62 309.238 1010.99 306.49 1013.53 303.908L1013.68 303.763C1017.04 300.39 1020.7 297.317 1024.6 294.578C1025.68 293.813 1026.77 293.067 1027.89 292.331C1029 291.594 1030.15 290.897 1031.32 290.219C1034.23 288.527 1037.23 287.01 1040.31 285.675C1041.28 285.239 1042.34 284.813 1043.36 284.415C1044.56 283.941 1045.76 283.447 1046.97 283.078C1050.32 281.934 1053.74 281.008 1057.21 280.308L1058.78 280.007C1060.09 279.765 1061.43 279.571 1062.75 279.387C1066.17 278.939 1069.61 278.709 1073.05 278.699H1073.23C1076.95 278.696 1080.68 278.939 1084.37 279.426C1086.2 279.659 1088.01 279.959 1089.83 280.327C1098.99 282.179 1107.79 285.524 1115.88 290.228C1128.83 297.491 1139.57 308.131 1146.96 321.017C1147.88 322.626 1148.74 324.256 1149.55 325.91C1150.36 327.563 1151.1 329.239 1151.78 330.938C1153.17 334.343 1154.32 337.839 1155.24 341.401C1157.1 348.792 1158.03 356.39 1157.99 364.013C1157.99 368.854 1157.47 373.68 1156.45 378.41C1155.98 380.532 1155.39 382.663 1154.73 384.785C1152.81 390.994 1150.21 396.975 1147 402.621C1142.57 410.494 1136.84 417.563 1130.06 423.528C1129.71 423.838 1129.34 424.128 1129 424.429C1126.42 426.611 1123.72 428.636 1120.9 430.494C1119.37 431.462 1117.82 432.489 1116.19 433.4C1109.35 437.326 1101.99 440.276 1094.33 442.168C1087.44 443.874 1080.37 444.73 1073.27 444.716C1055.43 444.742 1039.62 440.398 1025.85 431.685V431.656Z" fill="white"/>
<path d="M1062.76 279.416C1066.18 278.968 1069.62 278.738 1073.06 278.728C1069.62 278.738 1066.18 278.968 1062.76 279.416Z" fill="white"/>
<path d="M1003.32 316.648C1002.31 318.179 1001.35 319.755 1000.42 321.376C998.728 324.382 997.229 327.491 995.93 330.686C997.229 327.491 998.728 324.382 1000.42 321.376C1001.35 319.761 1002.31 318.185 1003.32 316.648Z" fill="white"/>
<path d="M1128.97 424.448C1126.39 426.63 1123.69 428.655 1120.87 430.513C1123.69 428.655 1126.39 426.63 1128.97 424.448Z" fill="white"/>
<path d="M411.058 259.246C410.738 259.19 410.415 259.155 410.091 259.139C409.799 259.152 409.508 259.184 409.22 259.236H409.762L411.058 259.246Z" fill="white"/>
<path d="M502.69 311.959C501.481 309.837 500.165 307.774 498.821 305.739C495.809 300.701 492.13 296.096 487.882 292.05C487.882 292.05 487.824 291.992 487.805 291.972C486.801 291.066 485.858 290.095 484.98 289.066C481.258 285.408 477.283 282.019 473.084 278.922C471.72 277.953 470.308 276.936 468.896 276.016C467.677 275.212 466.449 274.446 465.211 273.7C449.394 264.27 431.343 259.452 411.058 259.246H409.752H409.21C407.177 259.453 405.292 260.403 403.914 261.915C402.537 263.427 401.764 265.395 401.744 267.442V267.51C401.742 269.175 402.238 270.803 403.166 272.184C404.095 273.565 405.415 274.636 406.957 275.26C407.924 275.87 409.355 275.977 411.909 275.861C421.105 275.961 430.234 277.444 438.99 280.259C440.306 280.666 441.592 281.141 442.859 281.635L444.793 282.4L447.511 283.573C448.401 283.989 449.301 284.396 450.181 284.832C451.061 285.258 451.941 285.733 452.802 286.188C454.552 287.157 456.235 288.126 457.899 289.192L458.102 289.327C459.069 289.918 459.94 290.529 460.839 291.149C461.052 291.294 461.255 291.449 461.468 291.585C462.251 292.156 463.015 292.699 463.779 293.29C464.234 293.629 464.66 293.978 465.095 294.317C465.53 294.656 466.168 295.14 466.681 295.566C466.708 295.598 466.741 295.624 466.778 295.644C466.894 295.741 466.991 295.847 467.097 295.944C472.974 300.895 478.168 306.606 482.543 312.928C482.62 313.044 482.717 313.15 482.785 313.247C491.665 326.177 496.851 341.29 497.784 356.955C498.717 372.621 495.361 388.244 488.078 402.139C480.795 416.034 469.862 427.673 456.459 435.799C443.056 443.926 427.692 448.232 412.025 448.252C410.09 448.252 408.224 448.194 406.357 448.058C405.728 448.058 405.109 447.942 404.5 447.884C403.243 447.777 402.005 447.68 400.776 447.506H400.477C399.751 447.409 399.026 447.293 398.3 447.177L395.853 446.741C395.729 446.726 395.606 446.7 395.486 446.663C393.977 446.372 392.468 446.033 390.979 445.694C390.427 445.549 389.895 445.394 389.363 445.239C388.309 444.968 387.236 444.667 386.191 444.338C385.582 444.144 384.982 443.921 384.392 443.728C383.425 443.398 382.458 443.059 381.49 442.759L379.624 442.013C378.702 441.651 377.793 441.264 376.896 440.85L375.155 440.046C374.188 439.591 373.279 439.126 372.36 438.632C371.848 438.36 371.316 438.099 370.813 437.827C369.71 437.217 368.656 436.587 367.592 435.967C367.263 435.764 366.925 435.589 366.625 435.376C365.251 434.533 363.897 433.623 362.592 432.702C362.253 432.47 361.924 432.218 361.624 431.956C360.657 431.249 359.69 430.542 358.771 429.796C358.297 429.447 357.804 429.05 357.398 428.682C356.614 428.033 355.831 427.364 355.067 426.696C354.573 426.269 354.1 425.834 353.655 425.398C352.929 424.739 352.204 424.051 351.517 423.344C351.043 422.888 350.598 422.433 350.163 421.987C349.457 421.261 348.79 420.515 348.103 419.769C347.697 419.313 347.281 418.868 346.894 418.393C346.169 417.57 345.501 416.727 344.814 415.884C344.476 415.467 344.147 415.06 343.847 414.644C342.88 413.365 341.913 412.076 341.004 410.768C338.736 407.431 336.713 403.935 334.949 400.305L334.746 400.421C334.688 400.286 334.63 400.131 334.553 399.985C334.614 399.936 334.678 399.89 334.746 399.85C334.475 399.278 334.243 398.678 333.963 398.087C334.243 397.893 334.514 397.67 334.765 397.476C356.382 380.696 378.289 362.512 392.381 338.64C397.643 329.756 401.357 319.874 401.695 309.469C401.801 306.261 401.531 303.052 400.892 299.907C399.842 294.761 397.503 289.967 394.096 285.974C390.689 281.982 386.324 278.922 381.413 277.081H381.297L380.639 276.839C375.523 274.985 370.054 274.317 364.642 274.886C359.231 275.455 354.019 277.246 349.399 280.124L349.206 280.249C336.932 288.969 327.347 298.26 319.725 311.814C313.125 323.507 308.796 336.348 306.968 349.656C306.289 354.6 305.937 359.584 305.914 364.575C306.279 373.312 307.428 381.999 309.347 390.53C309.502 391.101 309.696 391.663 309.85 392.235C310.005 392.807 310.131 393.078 310.247 393.514C291.551 406.002 270.34 420.03 250.436 430.261C233.993 438.68 218.518 444.512 206.022 444.793C201.186 444.9 196.988 440.753 196.147 439.474C186.601 425.223 223.528 323.149 229.834 307.832C230.802 305.342 231.769 302.891 232.601 300.478C234.095 296.141 235.823 291.889 237.775 287.738C240.493 281.431 236.808 272.954 233.133 267.316C231.956 265.4 230.311 263.818 228.352 262.719C226.394 261.62 224.187 261.042 221.942 261.038H221.855C183.216 261.513 98.3733 343.329 66.4559 374.108L62.6742 377.761L81.3894 317.694C122.398 190.586 137.487 158.217 200.993 25.1117C203.952 19.0857 200.441 12.0908 195.499 9.04875C192.571 8.06066 189.387 8.14875 186.518 9.29725C183.649 10.4458 181.282 12.5797 179.84 15.317C108.132 164.825 85.7321 220.89 38.4653 378.265C20.311 439.688 18.6958 447.593 18.454 452.147C17.8737 459.083 22.9224 463.162 27.8842 464.044C32.8459 464.925 38.9005 462.745 40.7188 455.915L44.2878 443.437C56.3777 412.493 163.814 303.395 209.591 287.806L211.274 287.235L210.587 288.882C202.202 308.636 166.657 425.252 170.748 439.784C173.65 456.051 195.422 464.005 205.297 464.402C213.75 463.927 232.262 461.118 259.798 447.932C275.776 440.269 294.762 429.098 316.572 412.871C317.201 412.396 317.888 411.902 318.594 411.398C318.646 411.478 318.692 411.562 318.729 411.65C323.676 419.813 329.622 427.325 336.429 434.01C354.245 451.74 375.591 461.712 400.467 463.927C404.016 464.237 407.663 464.402 411.367 464.402C440.505 464.402 465.217 455.011 485.503 436.229C505.788 417.447 515.921 393.452 515.902 364.246C515.902 344.766 511.498 327.337 502.69 311.959ZM327.473 378.42C327.395 378.022 327.318 377.635 327.231 377.218C326.394 372.448 325.964 367.616 325.945 362.773C325.947 359.406 326.15 356.041 326.554 352.698C326.67 351.583 326.825 350.46 326.999 349.365C326.863 350.334 326.728 351.302 326.631 352.271L327.037 349.917C327.492 347.737 328.005 345.577 328.546 343.436C329.772 338.881 331.251 334.398 332.976 330.008C333.334 329.107 333.701 328.187 334.079 327.286L334.349 326.617C334.62 326.045 334.862 325.454 335.133 324.863C335.936 323.1 336.777 321.337 337.696 319.603C338.421 318.227 339.224 316.88 340.037 315.524L338.953 317.171C339.411 316.383 339.895 315.618 340.404 314.875C343.626 310.019 347.337 305.506 351.478 301.408L351.923 300.992L352.475 300.527C352.643 300.364 352.82 300.212 353.007 300.071C353.239 299.916 354.341 299.103 354.554 298.938C355.434 298.328 356.334 297.737 357.262 297.204C357.988 296.797 358.713 296.38 359.429 296.012L360.396 295.518C362.116 294.74 363.925 294.181 365.783 293.852C366.015 293.794 367.137 293.6 367.563 293.513C367.563 293.513 368.685 293.445 369.236 293.396C371.417 293.358 373.592 293.629 375.697 294.2C377.349 294.892 378.762 296.054 379.759 297.543C380.541 298.806 381.189 300.147 381.694 301.544C381.974 302.445 382.226 303.375 382.419 304.296C382.496 304.644 382.554 305.003 382.622 305.371C382.622 305.574 382.68 305.884 382.719 306.233C382.832 308.296 382.8 310.365 382.622 312.424C382.622 312.424 382.622 312.559 382.622 312.676C382.554 312.986 382.477 313.48 382.458 313.596C382.236 314.822 381.949 316.035 381.597 317.229C381.122 318.993 380.534 320.724 379.837 322.412C379.701 322.626 378.869 324.35 378.792 324.612C378.27 325.648 377.738 326.695 377.167 327.712C374.989 331.523 372.616 335.219 370.058 338.785C369.255 339.9 368.433 341.023 367.621 342.137C367.215 342.651 366.779 343.164 366.373 343.668C362.959 347.726 359.34 351.606 355.531 355.294C346.68 363.867 337.399 371.983 327.724 379.611C327.647 379.224 327.55 378.807 327.473 378.42Z" fill="white"/>
</svg>
